<svg width="220" height="60" viewBox="0 0 220 60" fill="none" xmlns="http://www.w3.org/2000/svg">
<path d="M211.756 0V52.3256H220V60H201.363V0H211.756ZM185.524 38.7209L182.576 9.01993L179.678 38.7209H185.524ZM191.57 0L198.065 60H187.722L186.323 46.2957H178.978L177.679 60H168.935L175.031 0H191.57ZM149.799 6.37874V26.8605H151.897C154.695 26.8605 155.345 25.6644 155.345 21.8272V11.113C155.345 7.17608 154.645 6.37874 151.997 6.37874H149.799ZM158.443 0C162.74 0 165.688 1.84385 165.688 8.47176V24.1694C165.688 27.907 163.539 29.8505 161.291 30.4983C163.589 31.0465 165.938 32.8405 165.938 38.2226V60H155.595V39.6678C155.595 35.1329 154.945 34.1362 151.997 34.1362H149.799V60H139.456V0H158.443ZM120.919 6.07973C118.421 6.07973 117.721 7.52492 117.721 11.0133V48.9369C117.721 52.4751 118.421 53.9203 120.919 53.9203C123.417 53.9203 124.117 52.4751 124.117 48.9369V11.0133C124.117 7.52492 123.417 6.07973 120.919 6.07973ZM126.065 60H115.722C111.375 60 107.378 57.5083 107.378 49.5847V10.3654C107.378 2.44186 111.375 0 115.722 0H126.065C130.312 0 134.459 2.44186 134.459 10.3654V49.5847C134.459 57.5083 130.312 60 126.065 60ZM84.2942 0H94.2373C98.4844 0 102.482 2.29236 102.482 10.0664V26.9601H92.1388V10.8638C92.1388 7.42525 91.4892 6.07973 89.2408 6.07973C86.9924 6.07973 86.3428 7.52492 86.3428 10.9635V49.0365C86.3428 52.5748 86.9424 53.9203 89.2408 53.9203C91.4892 53.9203 92.1388 52.6246 92.1388 49.1362V32.4917H102.482V49.9336C102.482 57.7575 98.4844 60 94.2373 60H84.2942C79.9473 60 76 57.7575 76 49.9336V10.0664C76 2.29236 79.9473 0 84.2942 0Z" fill="#F0F0F0"/>
<path d="M31.5553 45.2447L31.1101 54.8629H28.732L28.3867 45.2447C27.9899 34.7796 25.1653 31.9361 14.7619 31.5403L5.19982 31.1931V28.7999L14.7619 28.4527C25.1664 28.0546 27.9933 25.2124 28.3867 14.7494L28.732 5.13136H31.1101L31.4553 14.7494C31.8522 25.2136 35.0726 28.5024 44.9811 28.5024C52.5609 28.5024 56.8224 27.2074 56.8224 20.9801C56.8224 11.0138 44.2873 0 29.9193 0C13.4216 0 0.0453842 13.4059 0.0948634 30C0.144331 46.5941 13.4216 60 29.9193 60C44.2873 60 56.8224 48.9863 56.8224 39.0197C56.8224 32.8411 52.7105 31.4976 44.9811 31.4976C35.0726 31.4976 32.0501 34.7864 31.5542 45.2517" fill="#F0F0F0"/>
</svg>
