<svg width="176" height="48" viewBox="0 0 176 48" fill="none" xmlns="http://www.w3.org/2000/svg">
<path d="M169.405 0V41.8605H176V48H161.091V0H169.405ZM148.419 30.9767L146.061 7.21595L143.743 30.9767H148.419ZM153.256 0L158.452 48H150.178L149.059 37.0365H143.183L142.144 48H135.149L140.025 0H153.256ZM119.839 5.10299V21.4884H121.518C123.757 21.4884 124.276 20.5316 124.276 17.4618V8.89037C124.276 5.74086 123.717 5.10299 121.598 5.10299H119.839ZM126.754 0C130.192 0 132.55 1.47508 132.55 6.77741V19.3355C132.55 22.3256 130.832 23.8804 129.033 24.3987C130.872 24.8372 132.75 26.2724 132.75 30.5781V48H124.476V31.7342C124.476 28.1063 123.956 27.309 121.598 27.309H119.839V48H111.565V0H126.754ZM96.7353 4.86379C94.7367 4.86379 94.1771 6.01993 94.1771 8.81063V39.1495C94.1771 41.9801 94.7367 43.1362 96.7353 43.1362C98.734 43.1362 99.2936 41.9801 99.2936 39.1495V8.81063C99.2936 6.01993 98.734 4.86379 96.7353 4.86379ZM100.852 48H92.5782C89.1006 48 85.9029 46.0066 85.9029 39.6678V8.29236C85.9029 1.95349 89.1006 0 92.5782 0H100.852C104.25 0 107.568 1.95349 107.568 8.29236V39.6678C107.568 46.0066 104.25 48 100.852 48ZM67.4357 0H75.3902C78.7878 0 81.9856 1.83389 81.9856 8.05316V21.5681H73.7113V8.69103C73.7113 5.9402 73.1917 4.86379 71.3929 4.86379C69.5942 4.86379 69.0745 6.01993 69.0745 8.77076V39.2292C69.0745 42.0598 69.5542 43.1362 71.3929 43.1362C73.1917 43.1362 73.7113 42.0997 73.7113 39.309V25.9934H81.9856V39.9468C81.9856 46.206 78.7878 48 75.3902 48H67.4357C63.9581 48 60.8003 46.206 60.8003 39.9468V8.05316C60.8003 1.83389 63.9581 0 67.4357 0Z" fill="#F0F0F0"/>
<g clip-path="url(#clip0_1611_6455)">
<path d="M25.2441 36.1958L24.8879 43.8903H22.9855L22.7093 36.1958C22.3918 27.8237 20.1321 25.5489 11.8095 25.2322L4.15976 24.9545V23.0399L11.8095 22.7622C20.133 22.4437 22.3945 20.1699 22.7093 11.7995L22.9855 4.10509H24.8879L25.1642 11.7995C25.4816 20.1709 28.058 22.8019 35.9848 22.8019C42.0486 22.8019 45.4578 21.7659 45.4578 16.7841C45.4578 8.81102 35.4297 0 23.9353 0C10.7372 0 0.0362097 10.7247 0.0757931 24C0.115367 37.2753 10.7372 48 23.9353 48C35.4297 48 45.4578 39.189 45.4578 31.2158C45.4578 26.2729 42.1683 25.1981 35.9848 25.1981C28.058 25.1981 25.64 27.8291 25.2432 36.2014" fill="#F0F0F0"/>
</g>
<defs>
<clipPath id="clip0_1611_6455">
<rect width="45.6" height="48" fill="white"/>
</clipPath>
</defs>
</svg>
