<svg width="100%" viewBox="0 0 60 60" fill="none" xmlns="http://www.w3.org/2000/svg">
<path d="M33.0733 45.2447L32.6254 54.8629H30.2334L29.8861 45.2447C29.487 34.7796 26.6458 31.9361 16.1817 31.5403L6.56366 31.1931V28.7999L16.1817 28.4527C26.647 28.0546 29.4904 25.2124 29.8861 14.7494L30.2334 5.13136H32.6254L32.9727 14.7494C33.3718 25.2136 36.6111 28.5024 46.5776 28.5024C54.2017 28.5024 58.4881 27.2074 58.4881 20.9801C58.4881 11.0138 45.8797 0 31.4277 0C14.8336 0 1.37908 13.4059 1.42885 30C1.47861 46.5941 14.8336 60 31.4277 60C45.8797 60 58.4881 48.9863 58.4881 39.0197C58.4881 32.8411 54.3521 31.4976 46.5776 31.4976C36.6111 31.4976 33.571 34.7864 33.0721 45.2517" fill="#F0F0F0"/>
</svg>
