<svg width="44" height="44" viewBox="0 0 44 44" fill="none" xmlns="http://www.w3.org/2000/svg">
<circle cx="22" cy="22" r="22" fill="#FFB890"/>
<path d="M23.8723 33.9806V25.5907H26.6606L27.1905 22.1139H23.8723V19.8651C23.8493 19.6057 23.8848 19.3439 23.9758 19.1C24.0667 18.8561 24.2108 18.6363 24.3977 18.456C24.5847 18.2758 24.8099 18.1399 25.056 18.0588C25.3021 17.9777 25.5633 17.9535 25.82 17.9875H27.3289V15.0324C26.4446 14.8908 25.552 14.8131 24.6565 14.8004C24.0435 14.7536 23.4271 14.8418 22.8517 15.0596C22.2763 15.2773 21.755 15.6196 21.3247 16.0612C20.8945 16.5028 20.5664 17.0332 20.3616 17.6163C20.1567 18.1993 20.081 18.8206 20.1399 19.4362V22.0788H17.1085V25.5557H20.1399V33.9466C17.1699 33.4742 14.4853 31.8917 12.6234 29.5169C10.7614 27.1421 9.85829 24.1489 10.0939 21.1338C10.3295 18.1187 11.687 15.3041 13.8949 13.251C16.1028 11.1979 18.9986 10.0571 22.0055 10.0571C25.0124 10.0571 27.9093 11.1979 30.1172 13.251C32.3252 15.3041 33.6827 18.1187 33.9183 21.1338C34.1538 24.1489 33.2507 27.1421 31.3888 29.5169C29.5268 31.8917 26.8422 33.4742 23.8723 33.9466V33.9806Z" fill="#1E1E1E"/>
</svg>
