<svg width="44" height="44" viewBox="0 0 44 44" fill="none" xmlns="http://www.w3.org/2000/svg">
<circle cx="22" cy="22" r="22" fill="#FFB890"/>
<path d="M33.3542 17.7157C34.3718 17.0289 35.2877 16.2048 36 15.2434C35.0841 15.6096 34.0157 15.8843 32.9472 15.9759C34.0665 15.3807 34.8806 14.4651 35.2877 13.3205C34.2701 13.8699 33.0998 14.2819 31.9296 14.5108C30.9119 13.5494 29.5382 13 28.0117 13C25.0607 13 22.6693 15.1518 22.6693 17.8072C22.6693 18.1735 22.7202 18.5398 22.8219 18.906C18.3953 18.6771 14.4266 16.7542 11.7808 13.8699C11.3229 14.5566 11.0685 15.3807 11.0685 16.2964C11.0685 17.9446 11.9843 19.4096 13.4599 20.2795C12.5949 20.2337 11.7299 20.0506 11.0176 19.6843V19.7301C11.0176 22.0651 12.8493 23.988 15.2916 24.4458C14.8845 24.5373 14.3757 24.6289 13.9178 24.6289C13.5616 24.6289 13.2564 24.5831 12.9002 24.5373C13.5616 26.4602 15.546 27.8337 17.8865 27.8795C16.0548 29.1614 13.7652 29.9398 11.272 29.9398C10.8141 29.9398 10.407 29.894 10 29.8482C12.3405 31.2217 15.1389 32 18.1918 32C28.0117 32 33.3542 24.7205 33.3542 18.3566C33.3542 18.1277 33.3542 17.9446 33.3542 17.7157Z" fill="#1E1E1E"/>
</svg>
