<svg width="99" height="45" viewBox="0 0 99 45" fill="none" xmlns="http://www.w3.org/2000/svg">
<path d="M90.5274 3.23535V36.8366H95.8209V41.7647H83.8545V3.23535H90.5274ZM73.6847 28.1002L71.7919 9.02756L69.9312 28.1002H73.6847ZM77.5666 3.23535L81.7371 41.7647H75.0963L74.198 32.9644H69.4821L68.6479 41.7647H63.0337L66.9476 3.23535H77.5666ZM50.7465 7.3315V20.484H52.0939C53.8905 20.484 54.3076 19.7159 54.3076 17.2519V10.3716C54.3076 7.84352 53.8584 7.3315 52.1581 7.3315H50.7465ZM56.2966 3.23535C59.0556 3.23535 60.9484 4.41939 60.9484 8.67555V18.7559C60.9484 21.156 59.5689 22.404 58.1252 22.8201C59.601 23.1721 61.1088 24.3241 61.1088 27.7802V41.7647H54.468V28.7083C54.468 25.7962 54.0509 25.1561 52.1581 25.1561H50.7465V41.7647H44.1057V3.23535H56.2966ZM32.2035 7.13949C30.5994 7.13949 30.1503 8.06752 30.1503 10.3076V34.6605C30.1503 36.9326 30.5994 37.8606 32.2035 37.8606C33.8075 37.8606 34.2567 36.9326 34.2567 34.6605V10.3076C34.2567 8.06752 33.8075 7.13949 32.2035 7.13949ZM35.5079 41.7647H28.867C26.0759 41.7647 23.5094 40.1647 23.5094 35.0765V9.89159C23.5094 4.80341 26.0759 3.23535 28.867 3.23535H35.5079C38.2348 3.23535 40.8975 4.80341 40.8975 9.89159V35.0765C40.8975 40.1647 38.2348 41.7647 35.5079 41.7647ZM8.68782 3.23535H15.072C17.7989 3.23535 20.3654 4.7074 20.3654 9.69958V20.548H13.7246V10.2116C13.7246 8.00352 13.3075 7.13949 11.8639 7.13949C10.4202 7.13949 10.0032 8.06752 10.0032 10.2756V34.7245C10.0032 36.9966 10.3881 37.8606 11.8639 37.8606C13.3075 37.8606 13.7246 37.0286 13.7246 34.7885V24.1001H20.3654V35.3005C20.3654 40.3247 17.7989 41.7647 15.072 41.7647H8.68782C5.89673 41.7647 3.3623 40.3247 3.3623 35.3005V9.69958C3.3623 4.7074 5.89673 3.23535 8.68782 3.23535Z" fill="white"/>
</svg>
