<svg width="139" height="28" viewBox="0 0 139 28" fill="none" xmlns="http://www.w3.org/2000/svg">
<path d="M37.5984 9.11816H39.1099L43.3384 18.8783H41.3412L40.4273 16.6453H36.1709L35.284 18.8783H33.329L37.5984 9.11816ZM39.818 15.1561L38.3069 11.1859L36.7672 15.1561H39.818Z" fill="#F0F0F0"/>
<path d="M45.2147 9.11816H47.225L49.9007 16.4934L52.6569 9.11816H54.5426L50.5778 18.8783H49.0668L45.2147 9.11816Z" fill="#F0F0F0"/>
<path d="M60.7858 9.11816H62.2973L66.5254 18.8783H64.5291L63.6151 16.6453H59.3592L58.4718 18.8783H56.5172L60.7858 9.11816ZM63.0054 15.1561L61.4917 11.1859L59.9528 15.1561H63.0054Z" fill="#F0F0F0"/>
<path d="M70.389 9.11816H72.136V17.307H76.3088V18.8783H70.3899L70.389 9.11816Z" fill="#F0F0F0"/>
<path d="M83.5257 9.11816H85.0367L89.2648 18.8783H87.2685L86.3545 16.6453H82.0982L81.2108 18.8783H79.2562L83.5257 9.11816ZM85.7452 15.1561L84.2342 11.1859L82.6953 15.1561H85.7452Z" fill="#F0F0F0"/>
<path d="M93.1289 9.11816H95.4443L100.199 16.3696H100.227V9.11816H101.974V18.8783H99.7542L94.9016 11.3915H94.8741V18.8783H93.1272L93.1289 9.11816Z" fill="#F0F0F0"/>
<path d="M113.674 11.4067C113.313 11.0207 112.962 10.7634 112.62 10.6347C112.298 10.5081 111.955 10.4426 111.608 10.4417C111.132 10.4352 110.659 10.5291 110.222 10.7173C109.821 10.8879 109.462 11.1417 109.168 11.4617C108.867 11.7816 108.632 12.1561 108.475 12.5648C108.315 13.0021 108.235 13.4642 108.239 13.9293C108.234 14.4217 108.313 14.9113 108.475 15.3769C108.63 15.7991 108.865 16.1876 109.168 16.5212C109.464 16.8425 109.822 17.1005 110.222 17.2794C110.659 17.4676 111.132 17.5615 111.608 17.555C112.008 17.5545 112.402 17.46 112.759 17.2794C113.136 17.0864 113.487 16.7834 113.812 16.3706L115.254 17.3906C114.81 17.9968 114.268 18.4379 113.63 18.714C112.987 18.9908 112.293 19.1317 111.592 19.1277C110.834 19.1277 110.137 19.0081 109.499 18.769C108.891 18.5342 108.335 18.1829 107.863 17.7351C107.403 17.2733 107.041 16.7246 106.797 16.1213C106.538 15.4964 106.409 14.8025 106.409 14.0397C106.409 13.2587 106.538 12.551 106.797 11.9165C107.036 11.3029 107.4 10.7447 107.865 10.2764C108.332 9.82244 108.889 9.47033 109.501 9.24247C110.139 8.99406 110.837 8.86986 111.594 8.86986C112.227 8.86357 112.854 8.98564 113.438 9.22862C114.011 9.45943 114.543 9.85455 115.032 10.414L113.674 11.4067Z" fill="#F0F0F0"/>
<path d="M119.201 9.11816H120.947V13.0057H125.536V9.11816H127.283V18.8783H125.536V14.5771H120.946V18.8783H119.201V9.11816Z" fill="#F0F0F0"/>
<path d="M132.248 9.11816H138.75V10.6895H133.995V13.0879H138.501V14.6597H133.995V17.3065H139V18.8779H132.248V9.11816Z" fill="#F0F0F0"/>
<path fill-rule="evenodd" clip-rule="evenodd" d="M28.1583 14C28.1583 21.7318 21.8546 28 14.0791 28C6.30362 28 0 21.7318 0 14C0 6.26819 6.30319 0 14.0791 0C21.8551 0 28.1583 6.26776 28.1583 14ZM10.0895 19.571H7.35684C6.78279 19.571 6.49947 19.571 6.32625 19.4606C6.235 19.4014 6.159 19.3218 6.10435 19.2281C6.0497 19.1343 6.01793 19.0291 6.01159 18.921C6.00115 18.718 6.14216 18.47 6.42679 17.975L13.1726 6.15005C13.4598 5.64804 13.6052 5.39703 13.7884 5.30399C13.8859 5.25486 13.9937 5.22926 14.1031 5.22926C14.2124 5.22926 14.3202 5.25486 14.4177 5.30399C14.6014 5.39703 14.7463 5.6502 15.0336 6.15005L16.4206 8.55753L16.4275 8.57008C16.7378 9.10671 16.8954 9.38195 16.9637 9.6693C17.0399 9.98346 17.0399 10.3111 16.9637 10.6253C16.895 10.9144 16.7392 11.1879 16.4245 11.7362L12.8806 17.9646L12.8714 17.9806C12.5594 18.5237 12.3996 18.8007 12.182 19.0067C11.9449 19.2331 11.6567 19.3998 11.3416 19.4931C11.0544 19.571 10.7328 19.571 10.0895 19.571ZM16.9894 19.571H20.9063C21.4838 19.571 21.7741 19.571 21.9473 19.4576C22.0394 19.3983 22.1159 19.3181 22.1706 19.2236C22.2253 19.1291 22.2567 19.023 22.262 18.9141C22.272 18.718 22.1314 18.4813 21.8612 18.0135L21.8329 17.965L19.8705 14.6288L19.8483 14.5916C19.5728 14.1281 19.4336 13.894 19.2551 13.8035C19.1582 13.7543 19.0509 13.7286 18.942 13.7286C18.8331 13.7286 18.7258 13.7543 18.6288 13.8035C18.4491 13.8961 18.3037 14.1406 18.0169 14.6323L16.0624 17.9685L16.0554 17.9784C15.7695 18.4696 15.6263 18.7141 15.6368 18.9162C15.6428 19.025 15.6745 19.1308 15.7291 19.2252C15.7838 19.3196 15.8599 19.3999 15.9514 19.4598C16.1216 19.571 16.4119 19.571 16.9894 19.571Z" fill="#F0F0F0"/>
</svg>
