<svg width="44" height="44" viewBox="0 0 44 44" fill="none" xmlns="http://www.w3.org/2000/svg">
<circle cx="22" cy="22" r="22" fill="#F0F0F0" fill-opacity="0.2"/>
<path d="M31.6969 12.8393C29.8811 11.9807 27.9648 11.3683 25.9959 11.0172C25.9782 11.0151 25.9603 11.0182 25.9443 11.0261C25.9283 11.034 25.9147 11.0463 25.9052 11.0618C25.6608 11.5123 25.3887 12.1007 25.1955 12.5633C23.0748 12.2306 20.9174 12.2306 18.7967 12.5633C18.5846 12.0436 18.3437 11.5369 18.0752 11.0456C18.066 11.0298 18.0526 11.0171 18.0364 11.0091C18.0203 11.0012 18.0022 10.9983 17.9845 11.0009C16.0171 11.3526 14.1021 11.9651 12.2875 12.823C12.2711 12.8288 12.2571 12.8403 12.248 12.8555C8.62085 18.4354 7.62732 23.8773 8.1162 29.2544C8.11665 29.2673 8.1201 29.28 8.12628 29.2913C8.13245 29.3026 8.14116 29.3122 8.15168 29.3193C10.264 30.9355 12.6277 32.1705 15.1419 32.9716C15.1596 32.9766 15.1784 32.9762 15.1959 32.9705C15.2134 32.9647 15.2289 32.9538 15.2405 32.9391C15.778 32.1818 16.2552 31.3811 16.6677 30.5448C16.6735 30.5332 16.677 30.5205 16.6777 30.5074C16.6785 30.4944 16.6766 30.4813 16.6721 30.4691C16.6677 30.4568 16.6607 30.4457 16.6518 30.4364C16.6429 30.427 16.6322 30.4198 16.6204 30.415C15.8654 30.1191 15.135 29.7608 14.4362 29.3436C14.424 29.3355 14.4139 29.3244 14.407 29.3113C14.4 29.2982 14.3964 29.2835 14.3964 29.2686C14.3964 29.2536 14.4 29.2389 14.407 29.2258C14.4139 29.2127 14.424 29.2016 14.4362 29.1935C14.5821 29.0799 14.7279 28.9622 14.8699 28.8404C14.8837 28.8322 14.8993 28.8279 14.9152 28.8279C14.9311 28.8279 14.9468 28.8322 14.9605 28.8404C17.1615 29.9034 19.5629 30.4544 21.9941 30.4544C24.4254 30.4544 26.8267 29.9034 29.0277 28.8404C29.0415 28.8322 29.0572 28.8279 29.0731 28.8279C29.089 28.8279 29.1046 28.8322 29.1184 28.8404C29.2604 28.9581 29.4062 29.0799 29.5521 29.1935C29.5643 29.2016 29.5744 29.2127 29.5813 29.2258C29.5883 29.2389 29.5919 29.2536 29.5919 29.2686C29.5919 29.2835 29.5883 29.2982 29.5813 29.3113C29.5744 29.3244 29.5643 29.3355 29.5521 29.3436C28.854 29.7648 28.1219 30.1232 27.364 30.415C27.3521 30.4198 27.3414 30.427 27.3325 30.4364C27.3236 30.4457 27.3167 30.4568 27.3122 30.4691C27.3078 30.4813 27.3059 30.4944 27.3066 30.5074C27.3074 30.5205 27.3108 30.5332 27.3167 30.5448C27.7321 31.3842 28.2065 32.1912 28.736 32.9594C28.7463 32.9757 28.7615 32.9881 28.7793 32.9947C28.7971 33.0013 28.8165 33.0017 28.8346 32.9959C31.352 32.1967 33.7186 30.9616 35.8327 29.3436C35.8439 29.337 35.8534 29.3276 35.8603 29.3163C35.8672 29.3049 35.8712 29.292 35.8721 29.2787C36.4632 23.4745 34.9926 17.6464 31.7324 12.8717C31.7292 12.8639 31.7243 12.857 31.7182 12.8514C31.712 12.8457 31.7048 12.8416 31.6969 12.8393ZM17.3537 25.9957C15.9738 25.9957 14.8383 24.693 14.8383 23.0941C14.8383 21.4952 15.9501 20.1885 17.3537 20.1885C18.7573 20.1885 19.8888 21.5033 19.8691 23.0941C19.8494 24.6849 18.7533 25.9957 17.3537 25.9957ZM26.6543 25.9957C25.2744 25.9957 24.1389 24.693 24.1389 23.0941C24.1389 21.4952 25.2547 20.1885 26.6543 20.1885C28.0539 20.1885 29.1933 21.5033 29.1697 23.0941C29.146 24.6849 28.0815 25.9957 26.6543 25.9957Z" fill="#F0F0F0"/>
</svg>
