<svg width="44" height="44" viewBox="0 0 44 44" fill="none" xmlns="http://www.w3.org/2000/svg">
<circle cx="22" cy="22" r="22" fill="#F0F0F0" fill-opacity="0.2"/>
<path d="M29.8467 15.5984C29.8472 15.3132 29.7631 15.0342 29.605 14.7968C29.447 14.5594 29.222 14.3743 28.9587 14.2648C28.6953 14.1553 28.4054 14.1264 28.1256 14.1817C27.8458 14.237 27.5887 14.3741 27.3869 14.5756C27.1851 14.7772 27.0475 15.034 26.9917 15.3137C26.9359 15.5934 26.9644 15.8834 27.0734 16.1469C27.1825 16.4105 27.3673 16.6357 27.6044 16.7942C27.8416 16.9526 28.1204 17.0372 28.4056 17.0371C28.7874 17.0371 29.1535 16.8856 29.4237 16.6158C29.6939 16.3461 29.846 15.9802 29.8467 15.5984Z" fill="#F0F0F0"/>
<path d="M31.7665 26.8484C31.7132 28.0185 31.5175 28.6543 31.355 29.0765C31.1621 29.5983 30.8542 30.0699 30.4542 30.4565C30.0686 30.8554 29.5976 31.1616 29.0765 31.352C28.6543 31.5169 28.0161 31.7132 26.8461 31.769C25.5811 31.8247 25.2063 31.8366 21.9985 31.8366C18.7937 31.8366 18.4159 31.8247 17.151 31.769C15.9809 31.7132 15.3457 31.5169 14.9235 31.352C14.4057 31.1532 13.9353 30.8479 13.5429 30.4559C13.1504 30.064 12.8445 29.594 12.645 29.0765C12.4825 28.6543 12.2838 28.0185 12.2334 26.8484C12.1718 25.5835 12.1605 25.2027 12.1605 22.0015C12.1605 18.7937 12.1718 18.4159 12.2334 17.1509C12.2838 15.9809 12.4825 15.3457 12.645 14.9199C12.8359 14.3985 13.1432 13.9276 13.5435 13.5428C13.9305 13.144 14.4021 12.8372 14.9235 12.645C15.3457 12.4795 15.9809 12.2862 17.151 12.2305C18.4159 12.1747 18.7937 12.1605 21.9985 12.1605C25.2063 12.1605 25.5811 12.1747 26.8461 12.2305C28.0161 12.2862 28.6543 12.4795 29.0765 12.645C29.5931 12.8458 30.0624 13.1516 30.4546 13.5432C30.8468 13.9348 31.1534 14.4036 31.355 14.9199C31.5175 15.3457 31.7132 15.9809 31.7665 17.1509C31.8253 18.4159 31.8395 18.7937 31.8395 22.0015C31.8395 25.2027 31.8253 25.5835 31.7665 26.8484ZM33.927 17.0525C33.8683 15.7739 33.6667 14.9003 33.3672 14.1395C33.0602 13.342 32.5896 12.6176 31.9856 12.013C31.3816 11.4084 30.6577 10.937 29.8605 10.6292C29.0967 10.3327 28.2261 10.1287 26.9469 10.0729C25.6677 10.0113 25.2591 10 21.9985 10C18.7409 10 18.3294 10.0113 17.0502 10.0729C15.7739 10.1287 14.9039 10.3327 14.1365 10.6292C13.34 10.9383 12.6167 11.4101 12.0129 12.0145C11.4091 12.6189 10.938 13.3427 10.6298 14.1395C10.3333 14.9003 10.1317 15.7739 10.07 17.0525C10.0142 18.3317 10 18.7409 10 22.0015C10 25.2591 10.0142 25.6677 10.07 26.9469C10.1317 28.2231 10.3333 29.0961 10.6298 29.8605C10.9391 30.6566 11.4106 31.3797 12.0143 31.9839C12.6179 32.5881 13.3407 33.0602 14.1365 33.3702C14.9039 33.6667 15.7739 33.8683 17.0502 33.9271C18.3294 33.9858 18.7409 34 21.9985 34C25.2591 34 25.6677 33.9858 26.9469 33.9271C28.2261 33.8683 29.0967 33.6667 29.8605 33.3702C30.6607 33.0679 31.3855 32.5951 31.9848 31.9848C32.5956 31.3865 33.0675 30.6613 33.3672 29.8605C33.6667 29.0961 33.8683 28.2231 33.927 26.9469C33.9858 25.6677 34 25.2591 34 22.0015C34 18.7409 33.9858 18.3317 33.927 17.0525Z" fill="#F0F0F0"/>
<path d="M21.9989 25.9984C21.2078 25.9978 20.4348 25.7626 19.7774 25.3227C19.12 24.8827 18.6078 24.2577 18.3057 23.5267C18.0035 22.7956 17.9249 21.9914 18.0798 21.2157C18.2347 20.44 18.6161 19.7276 19.1759 19.1687C19.7356 18.6098 20.4486 18.2294 21.2245 18.0756C22.0004 17.9219 22.8045 18.0017 23.5351 18.3049C24.2657 18.6082 24.89 19.1213 25.329 19.7793C25.7679 20.4373 26.0019 21.2108 26.0014 22.0018C26.0012 22.5271 25.8974 23.0472 25.6961 23.5323C25.4948 24.0175 25.1999 24.4583 24.8282 24.8294C24.4565 25.2006 24.0153 25.4948 23.5299 25.6954C23.0444 25.896 22.5241 25.9989 21.9989 25.9984ZM21.9989 15.8359C20.7801 15.8359 19.5887 16.1973 18.5752 16.8744C17.5618 17.5514 16.7719 18.5138 16.3054 19.6397C15.8388 20.7657 15.7166 22.0047 15.9541 23.2001C16.1917 24.3955 16.7784 25.4937 17.64 26.3557C18.5016 27.2177 19.5994 27.8049 20.7947 28.043C21.99 28.2812 23.2291 28.1595 24.3553 27.6935C25.4815 27.2275 26.4442 26.4381 27.1217 25.4249C27.7993 24.4118 28.1612 23.2206 28.1618 22.0018C28.1622 21.1922 28.003 20.3905 27.6935 19.6425C27.3839 18.8944 26.93 18.2147 26.3577 17.6421C25.7854 17.0695 25.1059 16.6153 24.358 16.3054C23.6101 15.9955 22.8084 15.836 21.9989 15.8359Z" fill="#F0F0F0"/>
</svg>
