<svg width="48" height="32" viewBox="0 0 48 32" fill="none" xmlns="http://www.w3.org/2000/svg">
<path d="M50.0416 0.000667572H113.82C122.723 0.000667572 128.26 7.25731 126.184 16.1898L96.4901 143.675C94.3945 152.577 85.4807 159.84 76.5716 159.84H12.7992C3.90876 159.84 -1.64099 152.577 0.435887 143.675L30.1418 16.1898C32.2187 7.25731 41.1278 0.000667572 50.0416 0.000667572Z" fill="#E21836"/>
<path d="M108.513 0.000667572H181.857C190.758 0.000667572 186.745 7.25731 184.651 16.1898L154.962 143.675C152.879 152.577 153.528 159.84 144.608 159.84H71.2647C62.3446 159.84 56.8244 152.577 58.92 143.675L88.6072 16.1898C90.7152 7.25731 99.6057 0.000667572 108.513 0.000667572Z" fill="#00447C"/>
<path d="M178.948 0.000667572H242.726C251.642 0.000667572 257.179 7.25731 255.085 16.1898L225.396 143.675C223.301 152.577 214.381 159.84 205.467 159.84H141.718C132.798 159.84 127.265 152.577 129.355 143.675L159.048 16.1898C161.125 7.25731 170.028 0.000667572 178.948 0.000667572Z" fill="#007B84"/>
<path d="M66.6983 40.8561C60.1397 40.923 58.2027 40.8561 57.584 40.71C57.3461 41.8402 52.9203 62.2561 52.9079 62.2732C51.955 66.4036 51.2616 69.348 48.9065 71.2492C47.5696 72.3545 46.0088 72.8877 44.1993 72.8877C41.2907 72.8877 39.5963 71.4435 39.3118 68.7044L39.2574 67.7639C39.2574 67.7639 40.1435 62.2312 40.1435 62.2001C40.1435 62.2001 44.7885 43.5953 45.6202 41.136C45.6637 40.9961 45.6761 40.923 45.687 40.8561C36.6457 40.9354 35.043 40.8561 34.9326 40.71C34.872 40.9106 34.6481 42.064 34.6481 42.064L29.9052 63.0334L29.4979 64.8118L28.7097 70.6289C28.7097 72.3545 29.0486 73.7629 29.7233 74.9537C31.8841 78.7297 38.0479 79.2955 41.5348 79.2955C46.0274 79.2955 50.2418 78.341 53.0898 76.5984C58.0332 73.6774 59.3266 69.1117 60.4801 65.0543L61.0149 62.9727C61.0149 62.9727 65.7998 43.6497 66.6128 41.136C66.6439 40.9961 66.6563 40.923 66.6983 40.8561ZM82.9787 56.4443C81.8252 56.4443 79.7172 56.7241 77.8238 57.6521C77.1367 58.005 76.4869 58.4123 75.8013 58.8181L76.42 56.5842L76.0811 56.208C72.0657 57.021 71.1672 57.1298 67.458 57.6521L67.1471 57.8589C66.7165 61.4297 66.3341 64.1144 64.7376 71.1332C64.1297 73.72 63.4986 76.3316 62.8659 78.9122L63.0369 79.2402C66.8378 79.0397 67.9912 79.0397 71.2947 79.0941L71.562 78.8034C71.9818 76.6534 72.0362 76.1497 72.9658 71.7954C73.4026 69.731 74.3136 65.1948 74.7629 63.5796C75.5883 63.1972 76.4029 62.821 77.1802 62.821C79.0317 62.821 78.8063 64.4362 78.7347 65.0798C78.6555 66.1602 77.9808 69.689 77.289 72.7188L76.8273 74.6745C76.5055 76.1187 76.1526 77.5224 75.8308 78.9542L75.9708 79.2402C79.7172 79.0397 80.8598 79.0397 84.0591 79.0941L84.4353 78.8034C85.0136 75.4455 85.183 74.547 86.209 69.6579L86.7251 67.4116C87.7278 63.0153 88.2315 60.7861 87.4729 58.9704C86.6707 56.9355 84.7462 56.4443 82.9787 56.4443ZM101.166 61.0471C99.1743 61.4295 97.9042 61.6845 96.6419 61.8493C95.3905 62.0498 94.1702 62.2317 92.2457 62.4991L92.0933 62.6374L91.9534 62.7478C91.7529 64.1811 91.613 65.4201 91.3471 66.8767C91.1217 68.3831 90.7751 70.0946 90.2108 72.5539C89.7739 74.4365 89.5485 75.0925 89.2998 75.7547C89.0573 76.417 88.7899 77.0606 88.2987 78.912L88.4137 79.083L88.5101 79.24C90.3087 79.1545 91.4855 79.0939 92.6949 79.083C93.9028 79.0395 95.1542 79.083 97.0912 79.0939L97.2607 78.9556L97.4425 78.8032C97.7223 77.1336 97.7643 76.6844 97.9353 75.8698C98.1048 74.9961 98.397 73.7867 99.1137 70.5563C99.4526 69.0391 99.8303 67.5265 100.182 65.9782C100.547 64.436 100.929 62.9172 101.293 61.4L101.239 61.2166L101.166 61.0471ZM101.208 54.841C99.3986 53.7731 96.2227 54.112 94.0852 55.5872C91.9539 57.033 91.7114 59.085 93.5146 60.1669C95.2931 61.2054 98.4814 60.896 100.6 59.4083C102.727 57.9315 102.993 55.8981 101.208 54.841ZM112.151 79.5747C115.812 79.5747 119.565 78.5658 122.39 75.5718C124.563 73.1436 125.559 69.5308 125.904 68.0431C127.028 63.112 126.153 60.8097 125.054 59.4075C123.385 57.27 120.434 56.5845 117.373 56.5845C115.533 56.5845 111.149 56.7664 107.724 59.9236C105.265 62.2011 104.128 65.2915 103.443 68.2545C102.751 71.2734 101.955 76.7081 106.953 78.7306C108.495 79.3929 110.718 79.5747 112.151 79.5747ZM111.865 68.4799C112.709 64.7459 113.706 61.6119 116.249 61.6119C118.242 61.6119 118.387 63.9437 117.501 67.6902C117.342 68.5219 116.614 71.6139 115.63 72.9306C114.943 73.9022 114.13 74.4913 113.232 74.4913C112.964 74.4913 111.374 74.4914 111.349 72.13C111.337 70.9641 111.575 69.7733 111.865 68.4799ZM135.056 79.0945L135.342 78.8038C135.748 76.6539 135.815 76.1487 136.713 71.7959C137.163 69.7315 138.092 65.1953 138.529 63.5801C139.356 63.1961 140.157 62.8199 140.959 62.8199C142.798 62.8199 142.574 64.4351 142.501 65.0787C142.434 66.1607 141.759 69.6879 141.055 72.7178L140.618 74.6734C140.284 76.1191 139.92 77.5213 139.599 78.9546L139.738 79.2407C143.497 79.0401 144.596 79.0401 147.814 79.0945L148.203 78.8038C148.767 75.4444 148.92 74.5459 149.977 69.6584L150.48 67.4105C151.488 63.0143 151.998 60.7866 151.251 58.9709C150.426 56.936 148.489 56.4447 146.746 56.4447C145.591 56.4447 143.472 56.723 141.59 57.6526C140.917 58.0055 140.242 58.4112 139.58 58.8185L140.157 56.5846L139.847 56.2069C135.833 57.0215 134.916 57.1303 131.212 57.6526L130.927 57.8594C130.478 61.4302 130.113 64.1133 128.516 71.1337C127.908 73.7204 127.277 76.3321 126.646 78.9127L126.815 79.2407C130.623 79.0401 131.759 79.0401 135.056 79.0945ZM162.674 79.2399C162.91 78.0864 164.314 71.2495 164.326 71.2495C164.326 71.2495 165.521 66.233 165.595 66.0511C165.595 66.0511 165.971 65.5287 166.347 65.322H166.9C172.122 65.322 178.019 65.322 182.64 61.9222C185.785 59.5904 187.935 56.147 188.894 51.9622C189.143 50.9362 189.326 49.7158 189.326 48.4955C189.326 46.8928 189.005 45.3071 188.075 44.0682C185.718 40.771 181.025 40.7103 175.607 40.6855C175.59 40.6855 172.937 40.7103 172.937 40.7103C166.002 40.7958 163.221 40.771 162.078 40.631C161.982 41.1363 161.8 42.0348 161.8 42.0348C161.8 42.0348 159.316 53.5478 159.316 53.5665C159.316 53.5665 153.371 78.0444 153.091 79.1979C159.146 79.1248 161.629 79.1248 162.674 79.2399ZM167.277 58.7882C167.277 58.7882 169.918 47.2985 169.905 47.342L169.991 46.7529L170.028 46.3036L171.084 46.4124C171.084 46.4124 176.531 46.8803 176.658 46.8928C178.808 47.7245 179.694 49.8682 179.076 52.6664C178.511 55.2236 176.853 57.3736 174.721 58.412C172.966 59.2919 170.816 59.3649 168.601 59.3649H167.168L167.277 58.7882ZM183.721 68.6927C183.023 71.6681 182.221 77.1028 187.194 79.0398C188.78 79.7145 190.201 79.915 191.645 79.842C193.17 79.7596 194.583 78.9947 195.892 77.8941C195.774 78.3465 195.656 78.7989 195.537 79.2528L195.763 79.5435C199.34 79.3927 200.45 79.3927 204.325 79.4222L204.677 79.1548C205.242 75.8281 205.776 72.5977 207.246 66.2334C207.963 63.1849 208.678 60.166 209.413 57.13L209.298 56.7957C205.297 57.5373 204.227 57.6958 200.378 58.2415L200.086 58.4793C200.047 58.7887 200.007 59.0856 199.969 59.3825C199.371 58.4156 198.503 57.5901 197.165 57.0756C195.453 56.4024 191.433 57.2699 187.978 60.4163C185.549 62.6626 184.383 65.7406 183.721 68.6927ZM192.125 68.8746C192.982 65.2074 193.966 62.1045 196.515 62.1045C198.127 62.1045 198.976 63.5922 198.803 66.1293C198.667 66.762 198.519 67.4289 198.343 68.1828C198.088 69.2726 197.812 70.353 197.543 71.4349C197.269 72.1749 196.95 72.8729 196.601 73.3377C195.945 74.2673 194.384 74.8441 193.485 74.8441C193.23 74.8441 191.657 74.8441 191.603 72.5247C191.59 71.3697 191.828 70.1804 192.125 68.8746ZM236.011 56.766L235.702 56.4132C231.742 57.2153 231.025 57.3428 227.388 57.834L227.12 58.1014C227.108 58.1449 227.097 58.2118 227.078 58.2724L227.066 58.2118C224.358 64.4595 224.437 63.1117 222.233 68.0303C222.22 67.8065 222.22 67.6666 222.208 67.4287L221.656 56.766L221.309 56.4132C217.162 57.2153 217.064 57.3428 213.234 57.834L212.935 58.1014C212.893 58.2289 212.893 58.3688 212.868 58.5211L212.893 58.5755C213.372 61.0224 213.257 60.4768 213.737 64.3383C213.961 66.2333 214.26 68.1391 214.483 70.0108C214.861 73.1432 215.073 74.6854 215.534 79.4656C212.948 83.7344 212.335 85.3496 209.845 89.096L209.862 89.1334L208.108 91.9067C207.908 92.1989 207.726 92.3995 207.471 92.485C207.191 92.6233 206.827 92.6482 206.322 92.6482H205.35L203.906 97.4518L208.861 97.5373C211.769 97.5248 213.597 96.1646 214.581 94.3364L217.697 88.9981H217.647L217.975 88.6219C220.071 84.1106 236.011 56.766 236.011 56.766ZM183.721 119.854H181.619L189.398 94.1242H191.979L192.798 91.4737L192.877 94.4212C192.781 96.2431 194.214 97.8583 197.979 97.5909H202.334L203.832 92.6365H202.194C201.252 92.6365 200.815 92.3987 200.869 91.8888L200.79 88.8901H192.727V88.9056C190.12 88.96 182.334 89.1559 180.758 89.5756C178.851 90.0669 176.841 91.5126 176.841 91.5126L177.63 88.859H170.088L168.516 94.1242L160.633 120.247H159.103L157.603 125.166H172.626L172.123 126.806H179.525L180.017 125.166H182.093L183.721 119.854ZM177.557 99.3522C176.349 99.6864 174.102 100.7 174.102 100.7L176.101 94.1242H182.093L180.648 98.9154C180.648 98.9154 178.796 99.0242 177.557 99.3522ZM177.672 108.746C177.672 108.746 175.79 108.983 174.551 109.262C173.33 109.632 171.042 110.798 171.042 110.798L173.107 103.955H179.13L177.672 108.746ZM174.314 119.914H168.303L170.046 114.139H176.038L174.314 119.914ZM188.791 103.955H197.456L196.211 107.988H187.431L186.113 112.396H193.795L187.978 120.587C187.571 121.189 187.206 121.402 186.8 121.571C186.393 121.778 185.858 122.021 185.239 122.021H183.108L181.644 126.849H187.218C190.116 126.849 191.827 125.531 193.091 123.801L197.08 118.341L197.937 123.885C198.119 124.923 198.865 125.531 199.37 125.767C199.928 126.047 200.505 126.527 201.32 126.599C202.193 126.636 202.824 126.666 203.244 126.666H205.983L207.628 121.262H206.547C205.927 121.262 204.859 121.158 204.677 120.964C204.495 120.727 204.495 120.364 204.398 119.81L203.529 114.254H199.97L201.531 112.396H210.294L211.642 107.988H203.529L204.792 103.955H212.881L214.381 98.9822H190.267L188.791 103.955ZM115.606 121.037L117.628 114.309H125.941L127.459 109.305H119.139L120.409 105.164H128.54L130.046 100.318H109.703L108.228 105.164H112.85L111.617 109.305H106.983L105.447 114.395H110.067L107.371 123.296C107.008 124.474 107.542 124.923 107.881 125.471C108.228 126.004 108.579 126.357 109.369 126.557C110.184 126.739 110.742 126.848 111.5 126.848H120.871L122.541 121.304L118.387 121.875C117.585 121.875 115.363 121.779 115.606 121.037ZM116.559 88.8287L114.453 92.6358C114.002 93.4674 113.596 93.9836 113.231 94.2214C112.909 94.4219 112.272 94.5059 111.348 94.5059H110.249L108.78 99.3763H112.43C114.186 99.3763 115.533 98.7327 116.177 98.4109C116.869 98.0409 117.051 98.2524 117.585 97.7362L118.818 96.6683H130.216L131.729 91.5973H123.385L124.842 88.8287H116.559ZM133.386 121.135C133.192 120.855 133.332 120.362 133.629 119.336L136.744 109.025H147.827C149.442 109.002 150.608 108.983 151.366 108.929C152.181 108.843 153.067 108.552 154.032 108.03C155.029 107.483 155.539 106.906 155.969 106.244C156.45 105.583 157.221 104.137 157.883 101.908L161.799 88.8593L150.298 88.9261C150.298 88.9261 146.757 89.4485 145.198 90.0252C143.625 90.6688 141.377 92.4659 141.377 92.4659L142.415 88.8888H135.311L125.365 121.875C125.012 123.156 124.776 124.085 124.721 124.644C124.703 125.245 125.48 125.841 125.984 126.29C126.579 126.739 127.459 126.666 128.303 126.739C129.191 126.806 130.453 126.848 132.196 126.848H137.655L139.331 121.189L134.443 121.651C133.921 121.651 133.543 121.371 133.386 121.135ZM138.754 102.061H150.395L149.655 104.38C149.551 104.434 149.302 104.265 148.117 104.405H138.038L138.754 102.061ZM141.086 94.2816H152.825L151.98 97.0751C151.98 97.0751 146.448 97.0207 145.562 97.1839C141.663 97.8586 139.385 99.9417 139.385 99.9417L141.086 94.2816ZM149.915 112.147C149.819 112.494 149.667 112.705 149.454 112.864C149.217 113.016 148.835 113.07 148.264 113.07H146.606L146.704 110.246H139.805L139.525 124.055C139.514 125.051 139.61 125.628 140.339 126.09C141.068 126.666 143.315 126.74 146.338 126.74H150.662L152.222 121.571L148.459 121.777L147.207 121.85C147.036 121.777 146.873 121.711 146.691 121.529C146.533 121.372 146.265 121.468 146.309 120.472L146.338 116.932L150.285 116.769C152.417 116.769 153.328 116.075 154.105 115.415C154.846 114.782 155.089 114.054 155.369 113.07L156.031 109.936H150.607L149.915 112.147Z" fill="#FEFEFE"/>
</svg>
