<svg width="133" height="55" viewBox="0 0 133 55" fill="none" xmlns="http://www.w3.org/2000/svg">
<path d="M125.11 0V47.9651H132.667V55H115.583V0H125.11ZM101.064 35.4942L98.3617 8.26827L95.7052 35.4942H101.064ZM106.606 0L112.56 55H103.079L101.797 42.4377H95.064L93.8731 55H85.8579L91.4456 0H106.606ZM68.3159 5.84718V24.6221H70.2395C72.8044 24.6221 73.3998 23.5257 73.3998 20.0083V10.1869C73.3998 6.57807 72.7586 5.84718 70.3311 5.84718H68.3159ZM76.2395 0C80.1785 0 82.8808 1.6902 82.8808 7.76578V22.1553C82.8808 25.5814 80.9113 27.363 78.8502 27.9568C80.9571 28.4593 83.1098 30.1038 83.1098 35.0374V55H73.6288V36.3621C73.6288 32.2051 73.0334 31.2915 70.3311 31.2915H68.3159V55H58.8349V0H76.2395ZM41.8426 5.57309C39.5525 5.57309 38.9113 6.89784 38.9113 10.0955V44.8588C38.9113 48.1022 39.5525 49.4269 41.8426 49.4269C44.1327 49.4269 44.7739 48.1022 44.7739 44.8588V10.0955C44.7739 6.89784 44.1327 5.57309 41.8426 5.57309ZM46.5601 55H37.0792C33.0945 55 29.4304 52.7159 29.4304 45.4527V9.50166C29.4304 2.23837 33.0945 0 37.0792 0H46.5601C50.4533 0 54.2548 2.23837 54.2548 9.50166V45.4527C54.2548 52.7159 50.4533 55 46.5601 55ZM8.27005 0H17.3846C21.2777 0 24.9418 2.10133 24.9418 9.22757V24.7135H15.4609V9.95847C15.4609 6.80648 14.8655 5.57309 12.8044 5.57309C10.7433 5.57309 10.1479 6.89784 10.1479 10.0498V44.9502C10.1479 48.1935 10.6975 49.4269 12.8044 49.4269C14.8655 49.4269 15.4609 48.2392 15.4609 45.0415V29.7841H24.9418V45.7724C24.9418 52.9444 21.2777 55 17.3846 55H8.27005C4.28531 55 0.666992 52.9444 0.666992 45.7724V9.22757C0.666992 2.10133 4.28531 0 8.27005 0Z" fill="#F0F0F0"/>
</svg>
