<svg width="147" height="53" viewBox="0 0 147 53" fill="none" xmlns="http://www.w3.org/2000/svg">
<path d="M89.2558 10.3375C89.1914 10.3375 89.1592 10.3375 89.0948 10.3055C89.1592 10.3375 89.2236 10.3375 89.2558 10.3375Z" fill="#FFB890"/>
<path d="M8.78717 0H0V43.7506H10.3322C15.7397 43.7506 19.5056 42.1504 21.6621 38.9819C23.8187 35.8134 24.8809 30.0205 24.8809 21.6673C24.8809 13.442 23.8187 7.77717 21.6621 4.6727C19.5056 1.56824 15.2247 0 8.78717 0ZM14.5809 36.8056C13.8084 38.2778 12.4243 38.9819 10.4287 38.9819H8.85154V4.80072H10.4287C12.4565 4.80072 13.8406 6.04891 14.6131 8.51328C15.3856 10.9777 15.7718 15.5223 15.7718 22.1153C15.7397 30.4366 15.3534 35.3333 14.5809 36.8056Z" fill="#FFB890"/>
<path d="M34.8911 0.0319824H26.5868V7.68114H34.8911V0.0319824Z" fill="#FFB890"/>
<path d="M34.8911 10.2416H26.5868V43.7506H34.8911V10.2416Z" fill="#FFB890"/>
<path d="M48.8283 24.8357C46.1889 22.5314 44.6117 20.9631 44.0968 20.099C43.5818 19.2349 43.3243 18.3708 43.3243 17.4426C43.3243 16.6745 43.5496 16.0984 44.0002 15.6823C44.4508 15.2663 44.998 15.0743 45.6739 15.0743C46.4786 15.0743 47.0902 15.3943 47.5408 16.0024C47.9914 16.6105 48.2167 17.4426 48.2167 18.4348H54.8474C54.8474 15.6823 54.0427 13.538 52.4655 12.0338C50.8883 10.5296 48.603 9.79346 45.6096 9.79346C42.8093 9.79346 40.5561 10.5296 38.8502 11.9698C37.1443 13.442 36.2752 15.3943 36.2752 17.8587C36.2752 20.227 36.6293 22.2113 37.3052 23.8116C37.9811 25.4118 39.5905 27.3001 42.1333 29.5084C44.1289 31.2047 45.5774 32.5489 46.4464 33.477C47.3155 34.4052 47.7661 35.2693 47.7661 36.0694C47.7661 36.9336 47.573 37.5736 47.1546 38.0217C46.7361 38.4698 46.1246 38.6618 45.2877 38.6618C44.4186 38.6618 43.7749 38.3738 43.3243 37.8297C42.8736 37.2856 42.6483 36.3895 42.6483 35.1733H35.9211C35.9211 38.1177 36.7258 40.3581 38.3352 41.8303C39.9446 43.3025 42.3264 44.0386 45.513 44.0386C48.4742 44.0386 50.7917 43.2385 52.4977 41.6703C54.2036 40.102 55.0405 37.8937 55.0405 35.0453C55.0405 33.221 54.5899 31.5567 53.6886 30.0845C52.7874 28.6123 51.178 26.884 48.8283 24.8357Z" fill="#FFB890"/>
<path d="M145.68 30.1165C144.779 28.6443 143.17 26.884 140.852 24.8677C138.213 22.5634 136.636 20.9951 136.121 20.131C135.606 19.2669 135.348 18.4027 135.348 17.4746C135.348 16.7065 135.573 16.1304 136.024 15.7143C136.475 15.2983 137.022 15.1062 137.698 15.1062C138.503 15.1062 139.114 15.4263 139.565 16.0344C140.015 16.6425 140.241 17.4746 140.241 18.4667H146.871C146.871 15.7143 146.067 13.57 144.489 12.0658C142.912 10.5616 140.627 9.82544 137.633 9.82544C134.833 9.82544 132.58 10.5616 130.874 12.0018C129.168 13.474 128.299 15.4263 128.299 17.8907C128.299 20.259 128.653 22.2433 129.329 23.8436C130.005 25.4438 131.614 27.3321 134.157 29.5404C136.153 31.2367 137.601 32.5809 138.47 33.509C139.339 34.4372 139.79 35.3013 139.79 36.1014C139.79 36.9655 139.597 37.6056 139.146 38.0537C138.728 38.5018 138.116 38.6938 137.279 38.6938C136.41 38.6938 135.767 38.4058 135.316 37.8617C134.865 37.3176 134.64 36.4215 134.64 35.2053H127.913C127.913 38.1497 128.718 40.3901 130.327 41.8623C131.936 43.3345 134.318 44.0706 137.505 44.0706C140.466 44.0706 142.783 43.2705 144.489 41.7023C146.195 40.134 147.032 37.9257 147.032 35.0772C147 33.221 146.549 31.5887 145.68 30.1165Z" fill="#FFB890"/>
<path d="M84.3311 27.6521C84.3311 24.9317 86.552 22.7234 89.2879 22.7234C92.0238 22.7234 94.2448 24.9317 94.2448 27.6521C94.2448 30.3725 92.0238 32.5809 89.2879 32.5809C86.552 32.5809 84.3311 30.3725 84.3311 27.6521ZM84.5564 27.6521C84.5564 30.2445 86.6807 32.3568 89.2879 32.3568C91.8951 32.3568 94.0195 30.2445 94.0195 27.6521C94.0195 25.0597 91.8951 22.9474 89.2879 22.9474C86.6485 22.9474 84.5564 25.0597 84.5564 27.6521Z" fill="#FFB890"/>
<path d="M90.0604 27.6521C90.0604 28.0682 89.7063 28.4203 89.2879 28.4203C88.8694 28.4203 88.5154 28.0682 88.5154 27.6521C88.5154 27.2361 88.8694 26.884 89.2879 26.884C89.7063 26.884 90.0604 27.2361 90.0604 27.6521Z" fill="#FFB890"/>
<path d="M72.4218 35.4293H69.2996C69.1708 36.8695 68.9455 37.7977 68.5915 38.2458C68.2374 38.6938 67.6902 38.8858 66.9499 38.8858C65.759 38.8858 64.9865 38.1817 64.6646 36.8055C64.3105 35.4293 64.1496 32.1328 64.1496 26.916C64.1496 22.4034 64.3105 19.2989 64.6002 17.5706C64.8899 15.8424 65.6624 14.9782 66.8533 14.9782C67.5615 14.9782 68.0765 15.2663 68.3661 15.8744C68.6558 16.4825 68.8168 17.7947 68.8168 19.843H72.454C73.2586 18.1787 74.2565 16.6425 75.5118 15.2983C75.1255 14.1141 74.514 13.09 73.7415 12.2898C72.1321 10.6256 69.8146 9.79346 66.8211 9.79346C63.0552 9.79346 60.2227 11.2337 58.3558 14.1141C56.489 16.9945 55.5555 21.2512 55.5555 26.916C55.5555 32.6129 56.4568 36.9015 58.2593 39.75C60.0618 42.6304 62.7012 44.0706 66.2096 44.0706C69.2996 44.0706 71.6171 43.3665 73.1621 41.9583C73.9346 41.2542 74.4818 40.3901 74.868 39.3019C73.9024 38.1177 73.0977 36.8055 72.4218 35.4293Z" fill="#FFB890"/>
<path d="M107.796 27.6842C107.796 30.9487 106.959 33.9891 105.446 36.6455C105.961 38.5338 106.701 39.974 107.667 40.9982C108.987 42.3424 110.821 43.0145 113.171 43.0145C114.555 43.0145 115.778 42.8224 116.808 42.4704C117.838 42.1183 118.546 41.6383 118.9 41.0622C118.933 41.3822 118.965 41.7023 118.965 41.9583C118.997 42.2144 118.997 42.4704 118.997 42.6944C118.997 44.4547 118.611 45.7669 117.806 46.663C117.001 47.5592 115.778 48.0392 114.104 48.0392C113.01 48.0392 111.787 47.9112 110.467 47.6552C109.148 47.3991 108.053 47.1111 107.216 46.727L106.186 51.3037C107.442 51.8798 108.826 52.2959 110.371 52.5839C111.916 52.872 113.429 53 114.909 53C118.514 53 121.347 52.1038 123.471 50.3116C125.563 48.5193 126.625 45.9909 126.625 42.7264V10.2415H118.353V11.0416C117.613 10.5936 116.873 10.2735 116.132 10.0815C115.392 9.88947 114.523 9.79346 113.525 9.79346C111.497 9.79346 109.791 10.4015 108.407 11.6497C106.991 12.8979 105.993 14.6262 105.382 16.8025C105.285 17.1866 105.156 17.6346 105.06 18.1787C106.798 20.9631 107.764 24.1956 107.796 27.6842ZM118.418 37.5417C118.064 37.8297 117.709 38.0217 117.355 38.1497C117.001 38.2778 116.519 38.3418 115.939 38.3418C115.167 38.3418 114.587 38.1177 114.169 37.6697C113.75 37.2216 113.493 36.4855 113.396 35.4613C113.3 34.4052 113.203 33.061 113.139 31.4607C113.074 29.8605 113.042 28.1642 113.042 26.372C113.042 25.2198 113.074 23.9396 113.139 22.4354C113.203 20.9631 113.3 19.5869 113.429 18.3067C113.557 17.0586 113.815 16.2264 114.265 15.7784C114.716 15.3303 115.392 15.1063 116.293 15.1063C116.615 15.1063 117.001 15.1703 117.42 15.2343C117.838 15.3303 118.192 15.4583 118.418 15.5863V37.5417V37.5417Z" fill="#FFB890"/>
<path d="M80.3398 27.6521C80.3398 30.1805 81.402 32.4208 83.0758 34.0531L84.7495 32.2288C84.7495 32.2288 84.7495 32.2288 84.7817 32.2608C83.5586 31.1086 82.8183 29.4764 82.8183 27.6521C82.8183 24.0996 85.7151 21.2191 89.288 21.2191C90.4789 21.2191 91.5733 21.5392 92.5067 22.0833L93.6976 19.9069C92.378 19.1708 90.8973 18.7548 89.288 18.7548C84.3633 18.7548 80.3398 22.7554 80.3398 27.6521Z" fill="#FFB890"/>
<path d="M95.7255 27.6521C95.7255 31.2046 92.8286 34.085 89.288 34.085C88.1936 34.085 87.1958 33.829 86.2945 33.3489L85.0714 35.4933C86.3267 36.1654 87.7752 36.5494 89.288 36.5494C94.2126 36.5494 98.2361 32.5488 98.2361 27.6521C98.2361 25.2197 97.2383 23.0114 95.6611 21.4111L93.9551 23.2354C95.0495 24.3876 95.7255 25.9238 95.7255 27.6521Z" fill="#FFB890"/>
<path d="M77.5073 27.6522C77.5073 30.9807 78.9236 33.9891 81.1767 36.1335L82.8826 34.3092C81.1123 32.6449 80.0179 30.2766 80.0179 27.6842C80.0179 22.5954 84.1701 18.4668 89.2879 18.4668C90.9617 18.4668 92.5067 18.9149 93.8585 19.683L95.0817 17.5066C93.3757 16.5465 91.4123 16.0024 89.2879 16.0024C82.7861 15.9384 77.5073 21.1872 77.5073 27.6522Z" fill="#FFB890"/>
<path d="M98.5258 27.6522C98.5258 32.7409 94.3736 36.8695 89.2558 36.8695C87.6786 36.8695 86.198 36.4855 84.8783 35.7814L83.6552 37.9577C85.3289 38.8538 87.228 39.3659 89.2558 39.3659C95.7576 39.3659 101.036 34.1171 101.036 27.6522C101.036 24.4197 99.7167 21.4752 97.5601 19.3629L95.8542 21.1872C97.5279 22.8514 98.5258 25.1238 98.5258 27.6522Z" fill="#FFB890"/>
<path d="M101.358 27.6521C101.358 34.2771 95.9185 39.6859 89.2557 39.6859C87.1636 39.6859 85.2001 39.1739 83.4942 38.2457L82.2389 40.454C84.3311 41.5742 86.7129 42.2463 89.2557 42.2463C97.3348 42.2463 103.869 35.7173 103.869 27.7161C103.869 23.6515 102.195 19.971 99.4913 17.3466L97.7854 19.2028C100.006 21.2832 101.358 24.3236 101.358 27.6521Z" fill="#FFB890"/>
<path d="M74.6427 27.6521C74.6427 31.8128 76.413 35.5573 79.2133 38.2137L80.9192 36.3574C78.6018 34.1811 77.1533 31.0766 77.1533 27.6521C77.1533 21.0271 82.593 15.6183 89.2558 15.6183C91.4123 15.6183 93.4402 16.1944 95.1783 17.1866L96.4014 14.9782C94.277 13.794 91.8308 13.1219 89.2558 13.1219C81.2089 13.0899 74.6427 19.6189 74.6427 27.6521Z" fill="#FFB890"/>
<path d="M101.423 15.2343L99.7488 17.0265C102.517 19.7149 104.255 23.4915 104.255 27.6201C104.255 35.8134 97.5601 42.4704 89.3201 42.4704C86.7129 42.4704 84.2989 41.7983 82.1745 40.6461L80.9192 42.8544C83.3976 44.1986 86.2623 44.9987 89.2879 44.9987C98.912 44.9987 106.734 37.2216 106.734 27.6521C106.701 22.7874 104.674 18.4027 101.423 15.2343Z" fill="#FFB890"/>
<path d="M74.3208 27.6521C74.3208 19.4589 81.0157 12.8019 89.2557 12.8019C91.8951 12.8019 94.4057 13.506 96.5623 14.7222L97.7532 12.5778C95.307 11.2016 92.5067 10.4015 89.5132 10.3695H89.2235C79.6317 10.3695 71.8745 18.0507 71.778 27.5561V27.7161C71.778 32.6769 73.9023 37.1575 77.282 40.326L79.0201 38.4697C76.1233 35.7173 74.3208 31.9088 74.3208 27.6521Z" fill="#FFB890"/>
<path d="M142.301 7.04106C142.429 6.78502 142.59 6.56098 142.783 6.36896C142.977 6.17693 143.234 6.04891 143.492 5.92089C143.749 5.82487 144.039 5.76086 144.328 5.76086C144.618 5.76086 144.908 5.82487 145.165 5.92089C145.423 6.0169 145.68 6.17693 145.873 6.36896C146.067 6.56098 146.228 6.78502 146.356 7.04106C146.485 7.2971 146.549 7.61714 146.549 7.93719C146.549 8.25724 146.485 8.57729 146.356 8.83333C146.228 9.08936 146.067 9.3134 145.873 9.50543C145.68 9.69746 145.423 9.82548 145.165 9.92149C144.908 10.0175 144.618 10.0815 144.328 10.0815C144.039 10.0815 143.749 10.0175 143.492 9.92149C143.234 9.82548 142.977 9.66545 142.783 9.50543C142.59 9.3454 142.429 9.08936 142.301 8.83333C142.172 8.57729 142.108 8.25724 142.108 7.93719C142.14 7.58514 142.204 7.2971 142.301 7.04106ZM142.848 8.60929C142.944 8.80132 143.041 8.99335 143.202 9.15337C143.363 9.3134 143.524 9.40941 143.717 9.50543C143.91 9.60144 144.135 9.63345 144.361 9.63345C144.586 9.63345 144.811 9.60144 145.004 9.50543C145.198 9.40941 145.391 9.3134 145.519 9.15337C145.68 8.99335 145.777 8.83333 145.873 8.60929C145.97 8.41726 146.002 8.16122 146.002 7.93719C146.002 7.71316 145.97 7.45712 145.873 7.26509C145.777 7.07306 145.68 6.88103 145.519 6.72101C145.358 6.56098 145.198 6.46497 145.004 6.36896C144.811 6.27294 144.586 6.24094 144.361 6.24094C144.135 6.24094 143.91 6.27294 143.717 6.36896C143.524 6.46497 143.331 6.56098 143.202 6.72101C143.041 6.88103 142.944 7.04106 142.848 7.26509C142.751 7.45712 142.719 7.68115 142.719 7.93719C142.719 8.19323 142.751 8.38526 142.848 8.60929ZM144.393 6.72101C144.683 6.72101 144.94 6.78502 145.101 6.88103C145.262 6.97705 145.358 7.16908 145.358 7.42511C145.358 7.52113 145.326 7.61714 145.294 7.71316C145.262 7.77717 145.23 7.84118 145.165 7.90519C145.101 7.9692 145.037 8.0012 144.972 8.03321C144.908 8.06521 144.811 8.06521 144.715 8.09722L145.358 9.15337H144.843L144.264 8.12922H143.974V9.15337H143.492V6.72101H144.393ZM144.393 7.71316C144.522 7.71316 144.65 7.68115 144.747 7.64915C144.843 7.61714 144.876 7.52113 144.876 7.3611C144.876 7.2971 144.876 7.23309 144.843 7.20108C144.811 7.16908 144.779 7.13707 144.715 7.10507C144.683 7.07306 144.618 7.07306 144.554 7.07306C144.489 7.07306 144.425 7.07306 144.393 7.07306H143.974V7.71316H144.393Z" fill="#FFB890"/>
</svg>
