<svg width="35" height="35" viewBox="0 0 35 35" fill="none" xmlns="http://www.w3.org/2000/svg">
<path d="M18.9893 27.03V20.3563H21.2073L21.6288 17.5906H18.9893V15.8018C18.9711 15.5954 18.9993 15.3872 19.0716 15.1932C19.144 14.9992 19.2586 14.8243 19.4073 14.6809C19.556 14.5376 19.7352 14.4295 19.9309 14.365C20.1267 14.3004 20.3344 14.2812 20.5387 14.3082H21.7389V11.9576C21.0355 11.8449 20.3254 11.7831 19.6132 11.7731C19.1255 11.7359 18.6352 11.806 18.1775 11.9792C17.7198 12.1524 17.3052 12.4247 16.9629 12.776C16.6206 13.1273 16.3596 13.5492 16.1967 14.0129C16.0338 14.4767 15.9735 14.971 16.0204 15.4606V17.5627H13.6091V20.3284H16.0204V27.003C13.6579 26.6272 11.5224 25.3684 10.0413 23.4793C8.56025 21.5903 7.84184 19.2094 8.02924 16.811C8.21664 14.4126 9.29646 12.1737 11.0528 10.5406C12.8091 8.90743 15.1125 8 17.5044 8C19.8963 8 22.2006 8.90743 23.9569 10.5406C25.7132 12.1737 26.793 14.4126 26.9804 16.811C27.1678 19.2094 26.4494 21.5903 24.9683 23.4793C23.4872 25.3684 21.3518 26.6272 18.9893 27.003V27.03Z" fill="white"/>
<circle cx="17.5" cy="17.5" r="17.5" fill="#F0F0F0" fill-opacity="0.2"/>
</svg>
