<svg width="35" height="35" viewBox="0 0 35 35" fill="none" xmlns="http://www.w3.org/2000/svg">
<circle cx="17.5" cy="17.5" r="17.5" fill="#F0F0F0" fill-opacity="0.2"/>
<path d="M23.7419 12.408C23.7423 12.1811 23.6754 11.9592 23.5497 11.7704C23.4239 11.5815 23.245 11.4342 23.0355 11.3471C22.826 11.26 22.5954 11.237 22.3728 11.2811C22.1503 11.3251 21.9458 11.4341 21.7852 11.5944C21.6247 11.7547 21.5153 11.9591 21.4709 12.1815C21.4265 12.404 21.4491 12.6347 21.5359 12.8443C21.6226 13.0539 21.7696 13.2331 21.9583 13.3592C22.1469 13.4852 22.3687 13.5525 22.5956 13.5524C22.8992 13.5524 23.1905 13.4319 23.4054 13.2173C23.6204 13.0027 23.7414 12.7117 23.7419 12.408Z" fill="#F0F0F0"/>
<path d="M25.2689 21.3568C25.2264 22.2875 25.0708 22.7932 24.9415 23.1291C24.7881 23.5441 24.5431 23.9193 24.2249 24.2268C23.9182 24.5441 23.5436 24.7877 23.1291 24.9391C22.7932 25.0703 22.2856 25.2264 21.3549 25.2708C20.3487 25.3151 20.0505 25.3246 17.4989 25.3246C14.9496 25.3246 14.6491 25.3151 13.6428 25.2708C12.7121 25.2264 12.2069 25.0703 11.871 24.9391C11.4591 24.781 11.085 24.5381 10.7728 24.2264C10.4606 23.9146 10.2173 23.5408 10.0586 23.1291C9.92929 22.7932 9.77129 22.2875 9.73116 21.3568C9.68212 20.3505 9.67313 20.0477 9.67313 17.5012C9.67313 14.9496 9.68213 14.6491 9.73116 13.6428C9.77129 12.7121 9.92929 12.2069 10.0586 11.8681C10.2104 11.4534 10.4549 11.0788 10.7733 10.7728C11.0811 10.4555 11.4562 10.2115 11.871 10.0586C12.2069 9.92695 12.7121 9.77315 13.6428 9.72882C14.6491 9.68446 14.9496 9.67314 17.4989 9.67314C20.0505 9.67314 20.3487 9.68446 21.3549 9.72882C22.2856 9.77316 22.7932 9.92695 23.1291 10.0586C23.54 10.2183 23.9133 10.4616 24.2253 10.7731C24.5373 11.0846 24.7812 11.4575 24.9415 11.8681C25.0708 12.2069 25.2264 12.7121 25.2689 13.6428C25.3156 14.6491 25.3269 14.9496 25.3269 17.5012C25.3269 20.0477 25.3156 20.3505 25.2689 21.3568ZM26.9875 13.5645C26.9408 12.5475 26.7803 11.8526 26.5421 11.2474C26.2979 10.613 25.9236 10.0368 25.4431 9.55584C24.9627 9.07492 24.3869 8.69997 23.7527 8.45512C23.1451 8.21924 22.4526 8.05695 21.435 8.01261C20.4175 7.96354 20.0925 7.95459 17.4989 7.95459C14.9076 7.95459 14.5802 7.96354 13.5627 8.01261C12.5475 8.05695 11.8554 8.21923 11.245 8.45512C10.6114 8.70093 10.0361 9.07623 9.55576 9.55702C9.07546 10.0378 8.70075 10.6135 8.45558 11.2474C8.2197 11.8526 8.05932 12.5475 8.01025 13.5645C7.96591 14.5821 7.95459 14.9076 7.95459 17.5012C7.95459 20.0925 7.96592 20.4175 8.01025 21.4351C8.05932 22.4503 8.2197 23.1446 8.45558 23.7527C8.70164 24.386 9.07666 24.9612 9.55685 25.4418C10.037 25.9224 10.6119 26.2979 11.245 26.5445C11.8554 26.7804 12.5474 26.9408 13.5627 26.9875C14.5802 27.0342 14.9076 27.0455 17.4989 27.0455C20.0925 27.0455 20.4175 27.0342 21.435 26.9875C22.4526 26.9408 23.1451 26.7804 23.7527 26.5445C24.3892 26.304 24.9658 25.928 25.4425 25.4425C25.9284 24.9666 26.3037 24.3897 26.5421 23.7527C26.7803 23.1446 26.9408 22.4503 26.9875 21.4351C27.0342 20.4175 27.0455 20.0925 27.0455 17.5012C27.0455 14.9076 27.0342 14.5821 26.9875 13.5645Z" fill="#F0F0F0"/>
<path d="M17.499 20.6804C16.8698 20.68 16.2548 20.4929 15.7319 20.143C15.209 19.793 14.8016 19.2958 14.5612 18.7143C14.3209 18.1328 14.2583 17.4931 14.3816 16.876C14.5048 16.259 14.8082 15.6923 15.2535 15.2477C15.6987 14.8031 16.2658 14.5006 16.883 14.3783C17.5003 14.256 18.1399 14.3194 18.721 14.5607C19.3022 14.8019 19.7988 15.21 20.1479 15.7335C20.4971 16.2569 20.6833 16.8721 20.6828 17.5013C20.6826 17.9192 20.6001 18.3329 20.44 18.7188C20.2799 19.1047 20.0453 19.4553 19.7496 19.7506C19.454 20.0458 19.103 20.2799 18.7168 20.4394C18.3307 20.599 17.9168 20.6809 17.499 20.6804ZM17.499 12.5967C16.5295 12.5967 15.5818 12.8841 14.7757 13.4227C13.9695 13.9613 13.3412 14.7268 12.9701 15.6224C12.599 16.5181 12.5017 17.5037 12.6907 18.4546C12.8797 19.4054 13.3463 20.279 14.0317 20.9647C14.7171 21.6504 15.5904 22.1174 16.5412 22.3069C17.492 22.4963 18.4776 22.3995 19.3734 22.0288C20.2693 21.6582 21.0351 21.0302 21.574 20.2243C22.113 19.4184 22.4009 18.4708 22.4014 17.5013C22.4016 16.8574 22.275 16.2197 22.0288 15.6246C21.7826 15.0296 21.4215 14.4889 20.9663 14.0334C20.511 13.5779 19.9705 13.2166 19.3756 12.9701C18.7807 12.7236 18.143 12.5967 17.499 12.5967Z" fill="#F0F0F0"/>
</svg>
