<svg width="64" height="64" viewBox="0 0 64 64" fill="none" xmlns="http://www.w3.org/2000/svg">
<path d="M39.25 16C37.4688 16 35.75 16.3438 34.2188 16.9375C33.625 17.1719 33.4688 17.4219 33.4688 17.875V43.0469C33.4688 43.5313 33.8438 43.9063 34.3125 43.9531C34.3281 43.9688 56.125 43.9531 56.125 43.9531C60.4688 43.9531 64 40.4531 64 36.0625C64 31.6875 60.4688 28.125 56.125 28.125C55.0469 28.125 54.0156 28.3594 53.0781 28.75C52.4688 21.6094 46.5 16 39.25 16ZM31.8438 17.8594C31.6406 17.8594 31.4531 17.9375 31.3125 18.0625C31.1094 18.2188 30.9844 18.4688 30.9844 18.7344V18.8125L30.625 36.5938L30.8125 39.875L30.9844 43.0781C31 43.5469 31.375 43.9375 31.8438 43.9375C32.3281 43.9375 32.7031 43.5469 32.7188 43.0625L33.1094 36.5938L32.7188 18.7344C32.7031 18.4219 32.5313 18.1406 32.2813 17.9844C32.1563 17.9063 32.0156 17.8594 31.8438 17.8594ZM29.1563 19.4063C29 19.4063 28.8594 19.4531 28.7188 19.5313C28.5 19.6719 28.3594 19.9219 28.3438 20.2188V20.375L28.0469 36.5938L28.3438 43.1719C28.3438 43.1875 28.3438 43.1875 28.3438 43.2031C28.3594 43.3906 28.4375 43.5625 28.5469 43.6875C28.6875 43.875 28.9219 43.9844 29.1563 43.9844C29.3906 43.9844 29.5938 43.8906 29.7344 43.75C29.875 43.5938 29.9688 43.3906 29.9688 43.1719L30.0156 42.5156L30.3125 36.5938L29.9688 20.2188C29.9688 19.9375 29.8281 19.6875 29.6094 19.5313C29.4844 19.4531 29.3281 19.4063 29.1563 19.4063ZM21.125 21.2813C20.7656 21.2813 20.4844 21.5625 20.4688 21.9375L20.0625 36.5938L20.4688 43.3125C20.4844 43.6719 20.7656 43.9531 21.125 43.9531C21.4844 43.9531 21.7656 43.6719 21.7813 43.3125L22.2188 36.5938L21.7813 21.9375C21.7656 21.5625 21.4844 21.2813 21.125 21.2813ZM23.7813 21.5938C23.3906 21.5938 23.0938 21.9063 23.0781 22.3125L22.7031 36.5938L23.0781 43.25C23.0938 43.6406 23.3906 43.9531 23.7813 43.9531C24.1563 43.9531 24.4688 43.6406 24.4688 43.25L24.8906 36.5938L24.4688 22.2969C24.4688 21.9063 24.1719 21.5938 23.7813 21.5938ZM18.4844 21.8125C18.1563 21.8125 17.9063 22.0625 17.9063 22.4063L17.4531 36.5938L17.8906 43.3594C17.9063 43.6875 18.1719 43.9531 18.4844 43.9531C18.7969 43.9531 19.0625 43.7031 19.0781 43.375V43.3594L19.5625 36.5938L19.0781 22.4063C19.0625 22.0781 18.7969 21.8125 18.4844 21.8125ZM26.4688 22.0625C26.0469 22.0625 25.7031 22.3906 25.7031 22.8125L25.375 36.5938L25.7031 43.2031C25.7188 43.625 26.0313 43.9688 26.4531 43.9688C26.8594 43.9688 27.2031 43.6406 27.2188 43.2188V43.2031L27.5938 36.5938L27.2188 22.8125C27.2031 22.3906 26.875 22.0625 26.4688 22.0625ZM15.8281 23C15.5469 23 15.2969 23.2344 15.2813 23.5313L14.8125 36.625L15.2813 43.4531C15.2969 43.7656 15.5313 44 15.8281 44C16.1094 44 16.3594 43.7656 16.375 43.4688V43.4531L16.9063 36.625L16.375 23.5313C16.3594 23.2344 16.1094 23 15.8281 23ZM13.2813 25.4375C13.0156 25.4375 12.7969 25.6563 12.7813 25.9375L12.2813 36.5938L12.7813 43.4688C12.7969 43.7344 13.0156 43.9375 13.2813 43.9375C13.5313 43.9375 13.7344 43.7344 13.75 43.4531L14.3125 36.5938L13.75 25.9375C13.7344 25.6563 13.5313 25.4375 13.2813 25.4375ZM8.14062 29.1563C7.9375 29.1563 7.78125 29.3125 7.76562 29.5313L7.20312 36.5781L7.76562 43.4063C7.78125 43.625 7.9375 43.7813 8.14062 43.7813C8.34375 43.7813 8.5 43.625 8.51562 43.4063L9.15625 36.5781L8.51562 29.5313C8.5 29.3125 8.34375 29.1563 8.14062 29.1563ZM5.59375 29.3906C5.42188 29.3906 5.29688 29.5313 5.28125 29.7188L4.6875 36.5781L5.28125 43.2031C5.29688 43.3906 5.4375 43.5156 5.59375 43.5156C5.76562 43.5156 5.90625 43.3906 5.92188 43.2031L6.59375 36.5781L5.9375 29.7188C5.90625 29.5313 5.76562 29.3906 5.59375 29.3906ZM10.6875 29.6094C10.4688 29.6094 10.2813 29.7969 10.2656 30.0313L9.73438 36.5781L10.2656 43.4531C10.2813 43.7031 10.4688 43.8906 10.7031 43.8906C10.9375 43.8906 11.1094 43.7031 11.125 43.4531L11.7344 36.5781L11.125 30.0313C11.1094 29.7969 10.9219 29.6094 10.6875 29.6094ZM3.09375 30.5313C2.95312 30.5313 2.84375 30.6406 2.8125 30.7813L2.1875 36.5781L2.8125 42.25C2.84375 42.3906 2.95312 42.5 3.09375 42.5C3.23438 42.5 3.32812 42.3906 3.35938 42.25L4.07812 36.5781L3.35938 30.7813C3.34375 30.6406 3.21875 30.5313 3.09375 30.5313ZM0.718752 32.75C0.593752 32.75 0.484376 32.8438 0.468752 33L0 36.5781L0.468752 40.1094C0.484376 40.25 0.593752 40.3594 0.718752 40.3594C0.859376 40.3594 0.953124 40.25 0.968752 40.1094L1.53125 36.5938L0.968752 33C0.953124 32.8438 0.859376 32.75 0.718752 32.75Z" fill="#FFB890"/>
</svg>
