<svg width="35" height="35" viewBox="0 0 35 35" fill="none" xmlns="http://www.w3.org/2000/svg">
<circle cx="17.5" cy="17.5" r="17.5" fill="#F0F0F0" fill-opacity="0.2"/>
<path d="M27.841 17.5001C27.841 19.5461 27.234 21.5462 26.097 23.2471C24.9599 24.9481 23.3439 26.2734 21.4533 27.0556C19.5627 27.8377 17.4826 28.0414 15.4762 27.641C13.4697 27.2405 11.6273 26.2539 10.1818 24.8059C8.73632 23.358 7.7527 21.5137 7.3557 19.5066C6.9587 17.4994 7.1661 15.4197 7.9515 13.5305C8.73691 11.6412 10.0651 10.0274 11.7679 8.89327C13.4708 7.75912 15.4718 7.15568 17.5178 7.15919C18.8749 7.15919 20.2188 7.42662 21.4724 7.94652C22.726 8.46642 23.865 9.22851 24.8238 10.189C25.7826 11.1495 26.5426 12.2896 27.0604 13.5441C27.5781 14.7987 27.8433 16.1429 27.841 17.5001V17.5001ZM25.0869 15.4923C25.1016 15.2979 25.0569 15.1037 24.9585 14.9355C24.8601 14.7673 24.7128 14.633 24.5362 14.5505C20.3669 12.501 15.6005 12.0155 11.1036 13.1824C10.8693 13.2456 10.6655 13.391 10.5293 13.5919C10.3931 13.7927 10.3336 14.0359 10.3616 14.277C10.3896 14.5181 10.5032 14.741 10.6817 14.9054C10.8603 15.0697 11.092 15.1645 11.3346 15.1724C11.5218 15.1592 11.7069 15.1235 11.8855 15.0659C15.8059 14.0933 19.9433 14.5271 23.5767 16.2918C23.7351 16.3956 23.9204 16.4513 24.1098 16.4518C24.3612 16.4472 24.6006 16.3439 24.7767 16.1644C24.9528 15.985 25.0516 15.7437 25.0515 15.4923H25.0869ZM23.63 18.8149C23.6414 18.6484 23.6037 18.4821 23.5216 18.3369C23.4395 18.1916 23.3166 18.0737 23.168 17.9976C20.9218 16.7222 18.3772 16.066 15.7943 16.0963C14.4118 16.0874 13.0354 16.279 11.7079 16.665C11.5154 16.7109 11.3455 16.8235 11.2283 16.983C11.1112 17.1424 11.0545 17.3383 11.0682 17.5356C11.0729 17.7493 11.161 17.9527 11.3138 18.1022C11.4665 18.2516 11.6718 18.3352 11.8855 18.3351C12.0553 18.3216 12.2226 18.2859 12.3831 18.2286C15.7282 17.3445 19.2854 17.7835 22.3152 19.4545C22.4683 19.5581 22.6461 19.6194 22.8305 19.6321C23.0379 19.6186 23.2324 19.5265 23.3743 19.3747C23.5162 19.2229 23.5949 19.0227 23.5944 18.8149H23.63ZM22.333 21.7111C22.3443 21.5699 22.3109 21.4288 22.2376 21.3077C22.1642 21.1865 22.0547 21.0913 21.9244 21.0359C18.9022 19.4112 15.3693 19.0165 12.0631 19.9343C11.8968 19.9605 11.7463 20.0479 11.6411 20.1794C11.5359 20.3109 11.4837 20.477 11.4947 20.645C11.4922 20.732 11.5074 20.8186 11.5396 20.8995C11.5717 20.9803 11.6201 21.0537 11.6816 21.1153C11.7432 21.1768 11.8166 21.2252 11.8974 21.2573C11.9783 21.2895 12.0651 21.3049 12.1521 21.3025C12.3205 21.2804 12.4867 21.2447 12.6494 21.1957C15.5399 20.4202 18.6179 20.7828 21.2492 22.2086C21.3827 22.3089 21.5443 22.3647 21.7112 22.3685C21.8745 22.3549 22.0263 22.2791 22.1354 22.1568C22.2445 22.0345 22.3025 21.8749 22.2974 21.7111H22.333Z" fill="#F0F0F0"/>
</svg>
