<svg width="50" height="50" viewBox="0 0 50 50" fill="none" xmlns="http://www.w3.org/2000/svg">
<path d="M9 4C6.24958 4 4 6.24958 4 9V41C4 43.7504 6.24958 46 9 46H41C43.7504 46 46 43.7504 46 41V9C46 6.24958 43.7504 4 41 4H9ZM9 6H41C42.6716 6 44 7.32842 44 9V41C44 42.6716 42.6716 44 41 44H9C7.32842 44 6 42.6716 6 41V9C6 7.32842 7.32842 6 9 6ZM26.043 10C25.7781 10 25.5241 10.1051 25.3366 10.2922C25.1491 10.4793 25.0435 10.7332 25.043 10.998C25.043 10.998 25.032 15.8733 25.0215 20.7598C25.0162 23.203 25.0098 25.6488 25.0059 27.4902C25.0019 29.3317 25 30.4968 25 30.5938C25 32.409 23.3514 33.8926 21.4727 33.8926C19.6089 33.8926 18.1211 32.4029 18.1211 30.5391C18.1211 28.6753 19.6089 27.1875 21.4727 27.1875C21.5358 27.1875 21.6631 27.2082 21.8809 27.2344C22.0213 27.2512 22.1638 27.2381 22.2988 27.1958C22.4338 27.1535 22.5583 27.083 22.6641 26.9891C22.7699 26.8951 22.8545 26.7798 22.9124 26.6507C22.9703 26.5216 23.0002 26.3817 23 26.2402V22.0391C23 21.7847 22.903 21.5399 22.7288 21.3544C22.5547 21.169 22.3164 21.0569 22.0625 21.041C21.9067 21.0312 21.7106 21.0117 21.4727 21.0117C16.2231 21.0117 11.9453 25.2895 11.9453 30.5391C11.9453 35.7886 16.2231 40.0664 21.4727 40.0664C26.722 40.0664 31 35.7886 31 30.5391V21.4902C32.4546 22.6536 34.2675 23.3906 36.2695 23.3906C36.5426 23.3906 36.8023 23.3744 37.0508 23.3516C37.2991 23.3286 37.5299 23.2138 37.6979 23.0295C37.8659 22.8452 37.959 22.6048 37.959 22.3555V17.6855C37.9591 17.4327 37.8635 17.1892 37.6914 17.0041C37.5193 16.8189 37.2834 16.7058 37.0312 16.6875C33.8866 16.4619 31.3798 14.0122 31.0527 10.8965C31.0271 10.6506 30.9114 10.4229 30.7278 10.2574C30.5442 10.0918 30.3058 10.0001 30.0586 10H26.043ZM27.041 12H29.3223C30.049 15.2987 32.6267 17.8144 35.959 18.4453V21.3105C33.8201 21.2019 31.9415 20.1349 30.8359 18.4531C30.7177 18.2731 30.5445 18.1361 30.3421 18.0625C30.1397 17.9888 29.919 17.9825 29.7127 18.0444C29.5064 18.1062 29.3257 18.2331 29.1972 18.4059C29.0688 18.5788 28.9997 18.7885 29 19.0039V30.5391C29 34.7075 25.6413 38.0664 21.4727 38.0664C17.3042 38.0664 13.9453 34.7075 13.9453 30.5391C13.9453 26.5385 17.0661 23.3632 21 23.1074V25.2832C18.2864 25.5357 16.1211 27.7622 16.1211 30.5391C16.1211 33.4833 18.5284 35.8926 21.4727 35.8926C24.4019 35.8926 27 33.5865 27 30.5938C27 30.6427 27.0019 29.3356 27.0059 27.4941C27.0098 25.6527 27.0162 23.2069 27.0215 20.7637C27.0309 16.3768 27.0392 12.8492 27.041 12Z" fill="#FFB890"/>
</svg>
