<svg width="26" height="25" viewBox="0 0 26 25" fill="none" xmlns="http://www.w3.org/2000/svg">
<path d="M12.5161 8.59379C12.5162 7.69629 12.8257 6.82618 13.3925 6.12976C13.9594 5.43334 14.749 4.95306 15.6287 4.76968C16.5084 4.5863 17.4245 4.711 18.223 5.12282C19.0215 5.53463 19.6536 6.20844 20.0132 7.03097L23.4677 7.03101L20.313 10.1816C20.1076 13.3506 18.7023 16.3226 16.3825 18.4944C14.0626 20.6661 11.0022 21.8747 7.82254 21.8748C4.69351 21.8748 3.91125 20.7029 3.91125 20.7029C3.91125 20.7029 7.04028 19.531 8.6048 17.1873C8.6048 17.1873 2.34674 14.0623 3.91125 5.46851C3.91125 5.46851 7.82254 9.37476 12.5147 10.156L12.5161 8.59379Z" stroke="#FFB890" stroke-linecap="round" stroke-linejoin="round"/>
</svg>
