<svg width="35" height="35" viewBox="0 0 35 35" fill="none" xmlns="http://www.w3.org/2000/svg">
<circle cx="17.5" cy="17.5" r="17.5" fill="#F0F0F0" fill-opacity="0.2"/>
<path d="M26.5318 14.0919C27.3413 13.5456 28.0698 12.8901 28.6364 12.1253C27.9079 12.4167 27.058 12.6352 26.208 12.708C27.0984 12.2346 27.746 11.5062 28.0698 10.5957C27.2603 11.0328 26.3294 11.3605 25.3986 11.5426C24.5891 10.7778 23.4963 10.3408 22.2821 10.3408C19.9347 10.3408 18.0324 12.0525 18.0324 14.1648C18.0324 14.4561 18.0729 14.7474 18.1538 15.0388C14.6327 14.8567 11.4758 13.3271 9.37115 11.0328C9.00689 11.579 8.80453 12.2346 8.80453 12.9629C8.80453 14.274 9.53305 15.4394 10.7068 16.1313C10.0187 16.0949 9.33068 15.9493 8.76405 15.6579V15.6943C8.76405 17.5517 10.2211 19.0812 12.1638 19.4454C11.84 19.5183 11.4353 19.5911 11.071 19.5911C10.7877 19.5911 10.5449 19.5547 10.2616 19.5183C10.7877 21.0478 12.3662 22.1404 14.2279 22.1768C12.7709 23.1965 10.9496 23.8156 8.96642 23.8156C8.60216 23.8156 8.27838 23.7792 7.95459 23.7428C9.81636 24.8353 12.0424 25.4545 14.4708 25.4545C22.2821 25.4545 26.5318 19.6639 26.5318 14.6018C26.5318 14.4197 26.5318 14.274 26.5318 14.0919Z" fill="#F0F0F0"/>
</svg>
