<svg width="35" height="35" viewBox="0 0 35 35" fill="none" xmlns="http://www.w3.org/2000/svg">
<circle cx="17.5" cy="17.5" r="17.5" fill="#F0F0F0" fill-opacity="0.2"/>
<path d="M27.8405 17.5133C27.851 19.1666 27.7073 20.8174 27.4112 22.4448C27.2937 22.8756 27.0621 23.2679 26.74 23.5815C26.4179 23.8951 26.0168 24.1188 25.5781 24.2296C23.9699 24.659 17.5032 24.659 17.5032 24.659C17.5032 24.659 11.0365 24.659 9.4215 24.2296C8.98303 24.1196 8.58241 23.8961 8.26128 23.5823C7.94015 23.2685 7.71017 22.8757 7.59524 22.4448C7.01383 19.182 7.01383 15.8446 7.59524 12.5818C7.70919 12.1475 7.93837 11.7509 8.25928 11.4325C8.58019 11.1142 8.98131 10.8856 9.4215 10.7702C11.0365 10.3407 17.5032 10.3408 17.5032 10.3408C17.5032 10.3408 23.9699 10.3407 25.5781 10.7702C26.0186 10.8864 26.4201 11.1152 26.742 11.4333C27.0638 11.7514 27.2947 12.1476 27.4112 12.5818C27.7073 14.2092 27.851 15.86 27.8405 17.5133ZM20.7877 17.5133L15.384 14.4873V20.5259L20.7877 17.5133Z" fill="#F0F0F0"/>
</svg>
