<svg width="48" height="48" viewBox="0 0 48 48" fill="none" xmlns="http://www.w3.org/2000/svg">
<g clip-path="url(#clip0_241_1067)">
<path d="M17.2463 23.9856C17.2463 20.2272 20.2943 17.1792 24.0479 17.1792C27.8063 17.1792 30.8495 20.2224 30.8495 23.9856C30.8495 27.744 27.8015 30.7872 24.0479 30.7872C20.2943 30.7872 17.2463 27.744 17.2463 23.9856ZM17.5439 23.9856C17.5535 27.5808 20.4575 30.4848 24.0479 30.4896C27.6383 30.4896 30.5567 27.576 30.5567 23.9856C30.5519 20.3904 27.6431 17.4816 24.0479 17.4768C20.4575 17.4768 17.5439 20.3904 17.5439 23.9856Z" fill="#FFB890"/>
<path d="M25.1279 23.9856C25.1279 24.576 24.6431 25.056 24.0527 25.056C23.4623 25.056 22.9775 24.576 22.9775 23.9856C22.9775 23.3904 23.4575 22.9104 24.0527 22.9104C24.6431 22.9104 25.1279 23.3904 25.1279 23.9856Z" fill="#FFB890"/>
<path d="M11.7648 23.9856C11.7648 27.4608 13.2144 30.6 15.5424 32.8368L17.856 30.336C17.8656 30.3456 17.8752 30.3552 17.8848 30.3648C16.2144 28.752 15.1728 26.4912 15.1728 23.9904C15.1728 19.0896 19.1424 15.1152 24.048 15.1152C25.6656 15.1152 27.1776 15.552 28.4832 16.3104L30.1248 13.3152C28.3296 12.288 26.256 11.7024 24.048 11.7024C17.28 11.6928 11.7648 17.208 11.7648 23.9856Z" fill="#FFB890"/>
<path d="M32.928 23.9856C32.928 28.8864 28.9536 32.8608 24.0528 32.8608C22.5648 32.8608 21.1632 32.4912 19.9296 31.8432L18.2592 34.8192C19.9872 35.7456 21.96 36.2736 24.0528 36.2736C30.8304 36.2736 36.3408 30.7632 36.3408 23.9856C36.3408 20.6304 34.9872 17.5872 32.8032 15.3696L30.48 17.8704C31.992 19.464 32.928 21.6144 32.928 23.9856Z" fill="#FFB890"/>
<path d="M7.86719 23.9857C7.86719 28.5889 9.80159 32.7505 12.8976 35.7025L15.2448 33.1633C12.8304 30.8449 11.3232 27.5905 11.3232 23.9857C11.3232 16.9633 17.0352 11.2561 24.0528 11.2561C26.3376 11.2561 28.4832 11.8657 30.3408 12.9265L32.0016 9.89289C29.6496 8.56329 26.9376 7.79529 24.0528 7.79529C15.1296 7.79529 7.86719 15.0577 7.86719 23.9857Z" fill="#FFB890"/>
<path d="M36.7872 23.9856C36.7872 31.008 31.0752 36.7152 24.0576 36.7152C21.8832 36.7152 19.8384 36.168 18.0432 35.2032L16.3488 38.2176C18.6432 39.4656 21.2688 40.1712 24.0576 40.1712C32.9856 40.1712 40.248 32.9088 40.248 23.9808C40.248 19.5024 38.4192 15.4416 35.4672 12.504L33.1104 15.0384C35.3808 17.3424 36.7872 20.5008 36.7872 23.9856Z" fill="#FFB890"/>
<path d="M40.6847 23.9856C40.6847 33.1584 33.2256 40.6176 24.0528 40.6176C21.1872 40.6176 18.4848 39.888 16.128 38.6064L14.424 41.64C17.2848 43.2048 20.568 44.0976 24.0528 44.0976C35.1408 44.0976 44.1647 35.0736 44.1647 23.9856C44.1647 18.3696 41.8512 13.2912 38.1312 9.63843L35.7647 12.1872C38.8031 15.2016 40.6847 19.3728 40.6847 23.9856Z" fill="#FFB890"/>
<path d="M3.9408 23.9857C3.9408 29.7265 6.3648 34.9105 10.2336 38.5777L12.5952 36.0241C9.4128 32.9905 7.4208 28.7185 7.4208 23.9857C7.4208 14.8129 14.88 7.35366 24.0528 7.35366C27.0192 7.35366 29.8032 8.13606 32.2176 9.50406L33.888 6.45126C30.9792 4.80966 27.624 3.87366 24.0528 3.87366C12.9648 3.86886 3.9408 12.8929 3.9408 23.9857Z" fill="#FFB890"/>
<path d="M40.7424 6.83044L38.4336 9.31204C42.24 13.0464 44.6112 18.24 44.6112 23.9856C44.6112 35.3184 35.3904 44.5392 24.0576 44.5392C20.4912 44.5392 17.136 43.6272 14.2128 42.024L12.504 45.0672C15.9216 46.944 19.8432 48.0144 24.0144 48.0192C37.2672 48.0192 48.0192 37.272 48.0192 24.0192C48.0096 17.2752 45.2208 11.1888 40.7424 6.83044Z" fill="#FFB890"/>
<path d="M3.4992 23.9856C3.4992 12.648 12.72 3.42725 24.0528 3.42725C27.7008 3.42725 31.128 4.38725 34.104 6.06245L35.7312 3.08645C32.3712 1.19525 28.512 0.0912478 24.3984 0.0240479H24.0096C10.8336 0.0480478 0.158404 10.6416 0.0144043 23.7936V24.024C0.0288043 30.9024 2.928 37.0944 7.56481 41.4672L9.93601 38.904C5.97601 35.1552 3.4992 29.8512 3.4992 23.9856Z" fill="#FFB890"/>
</g>
<defs>
<clipPath id="clip0_241_1067">
<rect width="48" height="48" fill="white"/>
</clipPath>
</defs>
</svg>
