<svg width="52" height="52" viewBox="0 0 52 52" fill="none" xmlns="http://www.w3.org/2000/svg">
<path d="M26 0C11.6406 0 0 11.6406 0 26C0 40.3594 11.6406 52 26 52C40.3594 52 52 40.3594 52 26C52 11.6406 40.3594 0 26 0ZM26 4C38.2188 4 48 13.7813 48 26C48 38.2188 38.2188 48 26 48C13.7813 48 4 38.2188 4 26C4 13.7813 13.7813 4 26 4ZM22.2813 16C18.0313 16 14.3281 16.375 10.8281 17.4688C9.90625 17.6563 9.15625 18.4063 9.15625 19.6875C9.15625 20.9844 10.0781 22.0938 11.375 21.9063C11.9375 21.9063 12.2969 21.7188 12.6719 21.7188C15.625 20.9844 18.9375 20.6094 22.2656 20.6094C28.7188 20.6094 35.375 22.0938 39.8125 24.6875C40.3594 24.8594 40.5313 25.0469 41.0938 25.0469C42.3906 25.0469 43.3125 24.1094 43.5 22.8281C43.5 21.7188 42.9531 20.9844 42.2031 20.625C36.6719 17.4844 29.2969 16 22.2813 16ZM21.7188 24.125C17.8438 24.125 15.0625 24.6719 12.2969 25.4063C11.375 25.7813 10.8125 26.3438 10.8125 27.4375C10.8125 28.3594 11.5625 29.2813 12.6719 29.2813C13.0469 29.2813 13.2188 29.2969 13.7813 29.1094C15.8125 28.5469 18.5781 28.1875 21.5313 28.1875C27.625 28.1875 32.9688 29.6563 36.8594 32.0625C37.2188 32.25 37.5781 32.4375 38.1406 32.4375C39.25 32.4375 39.9844 31.5 40 30.4063C40 29.6563 39.625 28.9219 38.875 28.5625C34.0781 25.5938 28 24.125 21.7188 24.125ZM22.2656 32.0625C19.125 32.0625 16.1875 32.4375 13.2188 33.1719C12.4844 33.3594 11.9375 33.9063 11.9375 34.8281C11.9375 35.5625 12.4844 36.3125 13.4063 36.3125C13.5938 36.3125 14.1406 36.125 14.5156 36.125C16.9219 35.5625 19.5 35.2031 22.0938 35.2031C26.7031 35.2031 30.9375 36.3125 34.4531 38.3438C34.8281 38.5313 35.1875 38.7031 35.5625 38.7031C36.2969 38.7031 37.0313 38.1563 37.2344 37.4219C37.2344 36.4844 36.8594 36.125 36.2969 35.75C32.2344 33.3438 27.4375 32.0625 22.2656 32.0625Z" fill="#FFB890"/>
</svg>
