<svg width="65" height="65" viewBox="0 0 65 65" fill="none" xmlns="http://www.w3.org/2000/svg">
<path fill-rule="evenodd" clip-rule="evenodd" d="M37.7486 0.183628C44.1963 0.930049 50.1956 3.22502 55.2158 6.86573C58.1654 9.00488 61.5821 12.7729 62.9945 15.4443C64.597 18.4752 65.298 21.7793 64.8827 24.3427C64.1608 28.7982 61.107 30.5234 53.3744 30.8442C45.5563 31.1685 40.7659 29.6925 38.4616 26.2491C36.6817 23.5891 36.1459 20.718 35.8155 12.074L35.5693 5.63082L34.1973 5.57273L32.8252 5.51464L32.6983 8.15001C32.6283 9.59944 32.519 12.2574 32.4551 14.0566C32.1847 21.6685 31.3551 24.8857 29.064 27.2053C26.3858 29.917 23.4618 30.5845 12.5883 30.9657L5.7561 31.2054V32.494V33.7827L9.17219 33.9236C20.7842 34.4026 22.5643 34.5723 25.1866 35.451C28.9636 36.7162 30.9141 39.1692 31.8333 43.8101C32.1329 45.3216 32.3066 47.9068 32.688 56.5322L32.8174 59.4564H34.2163H35.6153L35.7562 54.5496C36.0117 45.6616 36.4916 42.3981 37.949 39.6333C39.2378 37.1887 41.6682 35.4813 44.8725 34.7698C48.1838 34.0345 55.4288 34.0275 58.7122 34.7567C61.7014 35.4206 63.5898 36.8165 64.4802 39.0207C65.0566 40.4471 65.1077 43.6281 64.5868 45.6564C62.69 53.0447 54.4193 60.4229 44.6789 63.4159C38.304 65.3746 31.1708 65.5229 24.8757 63.8273C19.2513 62.3124 14.2456 59.522 10.1001 55.5905C5.59854 51.3213 2.68762 46.516 1.10462 40.7411C0.2301 37.5505 -0.0050928 35.7529 8.30988e-05 32.2958C0.0265837 14.5502 15.0767 0.17669 33.8149 0.0010381C35.0136 -0.0102623 36.7838 0.072012 37.7486 0.183628Z" fill="white"/>
</svg>
