<svg width="276" height="276" viewBox="0 0 276 276" fill="none" xmlns="http://www.w3.org/2000/svg">
<g clip-path="url(#clip0_1586_7295)">
<path d="M137.739 275.53C61.7393 275.53 0 213.74 0 137.79C0 61.8398 61.7893 0.0495605 137.739 0.0495605C213.689 0.0495605 275.479 61.8398 275.479 137.79C275.479 213.74 213.689 275.53 137.739 275.53ZM137.739 1.90015C62.8093 1.90015 1.83984 62.8998 1.83984 137.79C1.83984 212.68 62.8393 273.69 137.739 273.69C212.639 273.69 273.63 212.69 273.63 137.79C273.63 62.8898 212.669 1.85034 137.739 1.85034V1.90015Z" fill="#F0F0F0"/>
<path d="M166.35 112V88.9002C166.35 73.3202 154.17 60.1504 138.6 59.6804C134.772 59.5709 130.961 60.2289 127.392 61.617C123.823 63.005 120.567 65.0945 117.819 67.7615C115.071 70.4285 112.886 73.6194 111.392 77.1453C109.897 80.6712 109.125 84.4603 109.12 88.2898V112C109.12 115.978 107.54 119.793 104.727 122.606C101.914 125.419 98.0984 127 94.1201 127H83.3398V215.761H192.1V127H181.319C177.346 126.992 173.539 125.409 170.732 122.596C167.926 119.784 166.35 115.973 166.35 112V112ZM111.12 88.2898C111.124 84.7268 111.842 81.2013 113.232 77.9207C114.623 74.6401 116.657 71.6711 119.214 69.1902C121.771 66.7093 124.8 64.7664 128.121 63.4763C131.442 62.1863 134.988 61.5762 138.55 61.6804C153.02 62.1104 164.35 74.3704 164.35 88.8504V112C164.35 115.978 162.769 119.793 159.956 122.606C157.143 125.419 153.328 127 149.35 127H126.09C122.112 127 118.296 125.419 115.483 122.606C112.67 119.793 111.09 115.978 111.09 112L111.12 88.2898ZM190.12 213.74H85.3594V128.98H190.12V213.74Z" fill="#F0F0F0"/>
</g>
<defs>
<clipPath id="clip0_1586_7295">
<rect width="275.48" height="275.48" fill="white"/>
</clipPath>
</defs>
</svg>
