<svg width="115" height="11" viewBox="0 0 115 11" fill="none" xmlns="http://www.w3.org/2000/svg">
<path d="M0.504 5.448V6.48H7.08L4.992 8.568L5.724 9.288L9.048 5.964L5.724 2.64L4.992 3.372L7.08 5.448H0.504ZM15.7025 9.144C17.2985 9.144 18.2825 8.16 18.2825 6.612V0.528H16.8545V6.648C16.8545 7.512 16.4465 8.016 15.7025 8.016C14.9585 8.016 14.5625 7.512 14.5625 6.588H13.1345C13.1585 8.172 14.1185 9.144 15.7025 9.144ZM19.6717 9H21.2197L21.9517 6.96H25.7437L26.4757 9H28.0237L24.8317 0.528H22.8517L19.6717 9ZM22.3237 5.808L23.8477 1.428L25.3717 5.808H22.3237ZM29.5863 9H30.9783V1.98L34.4703 9H36.4983V0.528H35.1063V7.56L31.6143 0.528H29.5863V9ZM41.6843 9H47.5283V7.872H43.3883C43.5443 7.368 44.0963 6.804 45.2843 5.952C46.8203 4.836 47.4563 3.996 47.4563 2.832C47.4563 1.428 46.2923 0.383999 44.6243 0.383999C42.9563 0.383999 41.7923 1.404 41.7203 2.952H43.1843C43.2083 2.016 43.7723 1.416 44.6363 1.416C45.4523 1.416 46.0043 2.016 46.0043 2.808C46.0043 3.636 45.5363 4.212 44.2163 5.172C42.4403 6.456 41.7563 7.488 41.6843 9ZM52.1772 9.144C53.9292 9.144 55.1892 8.136 55.1892 6.696C55.1892 5.676 54.5292 4.824 53.4612 4.524V4.476C54.3852 4.176 54.9132 3.492 54.9132 2.604C54.9132 1.32 53.7732 0.383999 52.1772 0.383999C50.5932 0.383999 49.4532 1.32 49.4532 2.604C49.4532 3.492 49.9812 4.176 50.8932 4.476V4.524C49.8372 4.824 49.1772 5.676 49.1772 6.696C49.1772 8.136 50.4372 9.144 52.1772 9.144ZM50.6172 6.588C50.6172 5.7 51.2652 5.052 52.1772 5.052C53.0892 5.052 53.7492 5.7 53.7492 6.588C53.7492 7.476 53.0892 8.124 52.1772 8.124C51.2652 8.124 50.6172 7.476 50.6172 6.588ZM50.8692 2.724C50.8692 1.956 51.4212 1.404 52.1772 1.404C52.9452 1.404 53.4972 1.956 53.4972 2.724C53.4972 3.492 52.9452 4.044 52.1772 4.044C51.4212 4.044 50.8692 3.492 50.8692 2.724ZM56.8076 10.716H57.6836C58.2476 10.152 58.4876 9.648 58.4876 9.012V7.512H56.9876V9H57.6836V9.12C57.6836 9.636 57.4556 10.056 56.8076 10.716ZM63.7762 9H65.3362C65.6962 6.456 66.8482 3.816 68.5282 1.956V0.528H62.8522V1.668H67.3162C65.5522 3.552 64.2442 6.336 63.7762 9ZM70.2902 9H71.7182V5.628H73.6742C75.3542 5.628 76.4582 4.584 76.4582 3.084C76.4582 1.584 75.3542 0.528 73.6742 0.528H70.2902V9ZM71.7182 4.488V1.692H73.4822C74.4062 1.692 74.9582 2.22 74.9582 3.096C74.9582 3.96 74.4062 4.488 73.4822 4.488H71.7182ZM78.2847 9H79.6767V2.004L81.9567 9H83.6607L85.9407 2.004V9H87.3327V0.528H85.0887L82.8087 7.752L80.5287 0.528H78.2847V9ZM93.0316 9H98.6596V7.812H94.4596V5.172H98.0596V4.008H94.4596V1.716H98.6596V0.528H93.0316V9ZM103.601 9.144C105.557 9.144 106.889 8.076 106.889 6.516C106.889 5.304 106.193 4.608 104.393 4.176L103.457 3.96C102.341 3.696 101.981 3.384 101.981 2.712C101.981 1.968 102.605 1.452 103.529 1.452C104.537 1.452 105.173 2.028 105.245 3H106.745C106.577 1.392 105.353 0.383999 103.541 0.383999C101.741 0.383999 100.481 1.392 100.481 2.88C100.481 4.056 101.165 4.764 102.917 5.172L103.817 5.388C105.005 5.676 105.389 5.976 105.389 6.684C105.389 7.524 104.669 8.076 103.625 8.076C102.473 8.076 101.753 7.428 101.657 6.288H100.157C100.301 8.04 101.621 9.144 103.601 9.144ZM110.337 9H111.777V1.716H114.213V0.528H107.901V1.716H110.337V9Z" fill="#F0F0F0"/>
</svg>
