<?xml version="1.0" encoding="utf-8"?>
<!-- Generator: Adobe Illustrator 26.0.1, SVG Export Plug-In . SVG Version: 6.00 Build 0)  -->
<svg version="1.1" id="Layer_1" xmlns="http://www.w3.org/2000/svg" xmlns:xlink="http://www.w3.org/1999/xlink" x="0px" y="0px"
	 viewBox="0 0 1406.2 1406.2" style="enable-background:new 0 0 1406.2 1406.2;" xml:space="preserve">
<style type="text/css">
	.st0{fill:#FFFFFF;}
</style>
<path class="st0" d="M678.4,1201.9l-7-193c-8-210-65-267-275-275l-193-7v-48l193-7c210-8,267-65,275-275l7-193h48l7,193
	c8,210,73,276,273,276c155,0,239-27,239-151c0-200-253-421-543-421c-333,0-602,269-602,602s269,602,602,602c290,0,543-221,543-421
	c0-124-84-151-239-151c-200,0-265,66-273,276l-7,193H678.4z"/>
</svg>
