<svg width="276" height="276" viewBox="0 0 276 276" fill="none" xmlns="http://www.w3.org/2000/svg">
<g clip-path="url(#clip0_1586_7273)">
<path d="M137.74 275.48C61.7402 275.48 0 213.69 0 137.74C0 61.7896 61.7902 0.000366211 137.74 0.000366211C213.69 0.000366211 275.479 61.7896 275.479 137.74C275.479 213.69 213.69 275.48 137.74 275.48ZM137.74 1.84021C62.8002 1.84021 1.83984 62.8396 1.83984 137.74C1.83984 212.64 62.8402 273.63 137.74 273.63C212.64 273.63 273.63 212.63 273.63 137.74C273.63 62.8496 212.67 1.84021 137.74 1.84021Z" fill="#F0F0F0"/>
<path d="M208.66 92.8002L207.66 93.8002C204.431 97.009 200.062 98.807 195.51 98.8002C190.632 98.8636 185.916 97.048 182.34 93.7299C180.474 91.9649 179.003 89.8263 178.021 87.4535C177.038 85.0807 176.567 82.5274 176.64 79.9603C176.827 75.0911 178.879 70.4802 182.37 67.0804L182.67 66.7797L160.05 44.1595L44.21 160.05L66.8203 182.67L67.4697 182.02C70.0059 179.49 73.2231 177.753 76.7295 177.02C79.1907 176.485 81.7389 176.485 84.2002 177.02C87.7078 177.758 90.9267 179.494 93.4697 182.02C96.2772 184.827 98.0998 188.469 98.6641 192.399C99.2283 196.329 98.5038 200.336 96.5996 203.82C95.6875 205.465 94.5394 206.968 93.1904 208.28L92.8096 208.66L115.43 231.28L231.29 115.42L208.66 92.8002ZM180.08 66.8002C177.935 69.1431 176.373 71.9583 175.52 75.0179C174.666 78.0776 174.547 81.2949 175.17 84.4095C175.652 86.962 176.645 89.3913 178.09 91.5502C179.935 94.3512 182.447 96.6495 185.4 98.2396C188.354 99.8297 191.656 100.661 195.01 100.66C200.052 100.674 204.915 98.7895 208.63 95.3802L228.63 115.38L167.51 176.5C164.47 179.536 160.35 181.241 156.055 181.241C151.759 181.241 147.639 179.536 144.6 176.5L98.9004 130.79C97.3949 129.287 96.2006 127.501 95.3857 125.536C94.5709 123.57 94.1514 121.463 94.1514 119.335C94.1514 117.208 94.5709 115.101 95.3857 113.135C96.2006 111.17 97.3949 109.384 98.9004 107.88L160.01 46.7601L180.08 66.8002ZM95.4004 208.63C98.9063 204.784 100.796 199.735 100.677 194.532C100.558 189.329 98.4381 184.372 94.7598 180.69C91.078 177.011 86.1197 174.892 80.916 174.775C75.7123 174.657 70.6642 176.55 66.8203 180.06L46.8203 160.06L74.7295 132.15C76.2331 130.644 78.0188 129.45 79.9844 128.635C81.9499 127.82 84.0568 127.401 86.1846 127.401C88.3123 127.401 90.4192 127.82 92.3848 128.635C94.3503 129.45 96.136 130.644 97.6396 132.15L143.34 177.85C144.845 179.354 146.04 181.139 146.854 183.105C147.669 185.07 148.089 187.177 148.089 189.305C148.089 191.433 147.669 193.54 146.854 195.505C146.04 197.471 144.845 199.257 143.34 200.76L115.43 228.68L95.4004 208.63Z" fill="#F0F0F0"/>
</g>
<defs>
<clipPath id="clip0_1586_7273">
<rect width="275.48" height="275.48" fill="white"/>
</clipPath>
</defs>
</svg>
