<svg width="26" height="25" viewBox="0 0 26 25" fill="none" xmlns="http://www.w3.org/2000/svg">
<path d="M12.5802 16.4065C14.7404 16.4065 16.4915 14.6576 16.4915 12.5002C16.4915 10.3429 14.7404 8.59399 12.5802 8.59399C10.4201 8.59399 8.66895 10.3429 8.66895 12.5002C8.66895 14.6576 10.4201 16.4065 12.5802 16.4065Z" stroke="#FFB890" stroke-miterlimit="10"/>
<path d="M16.8833 3.51538H8.27851C5.68633 3.51538 3.58496 5.61405 3.58496 8.20288V16.7966C3.58496 19.3855 5.68633 21.4841 8.27851 21.4841H16.8833C19.4755 21.4841 21.5769 19.3855 21.5769 16.7966V8.20288C21.5769 5.61405 19.4755 3.51538 16.8833 3.51538Z" stroke="#FFB890" stroke-linecap="round" stroke-linejoin="round"/>
<path d="M17.6656 8.59399C18.3136 8.59399 18.839 8.06933 18.839 7.42212C18.839 6.77491 18.3136 6.25024 17.6656 6.25024C17.0175 6.25024 16.4922 6.77491 16.4922 7.42212C16.4922 8.06933 17.0175 8.59399 17.6656 8.59399Z" fill="#FFB890"/>
</svg>
