<svg width="21" height="21" viewBox="0 0 21 21" fill="none" xmlns="http://www.w3.org/2000/svg">
<path d="M6.87256 5.03039L10.1538 1.75L13.4351 5.03039" stroke="white" stroke-width="2" stroke-linecap="round" stroke-linejoin="round"/>
<path d="M10.1538 10.5V1.75232" stroke="white" stroke-width="2" stroke-linecap="round" stroke-linejoin="round"/>
<path d="M13.9038 8H15.7788C15.9446 8 16.1035 8.06585 16.2208 8.18306C16.338 8.30027 16.4038 8.45924 16.4038 8.625V16.75C16.4038 16.9158 16.338 17.0747 16.2208 17.1919C16.1035 17.3092 15.9446 17.375 15.7788 17.375H4.52881C4.36305 17.375 4.20408 17.3092 4.08687 17.1919C3.96966 17.0747 3.90381 16.9158 3.90381 16.75V8.625C3.90381 8.45924 3.96966 8.30027 4.08687 8.18306C4.20408 8.06585 4.36305 8 4.52881 8H6.40381" stroke="white" stroke-width="2" stroke-linecap="round" stroke-linejoin="round"/>
</svg>
